<svg width="878" height="60" viewBox="0 0 878 60" fill="none" xmlns="http://www.w3.org/2000/svg">
<g filter="url(#filter0_b_266_43585)">
<rect width="878" height="60" fill="#00D8FF"/>
</g>
<path d="M22.4385 2L26.5232 4.33333V9L22.4385 11.3333L18.3538 9V4.33333L22.4385 2Z" fill="#183645"/>
<path d="M32.9197 2L37.0044 4.33333V9L32.9197 11.3333L28.835 9V4.33333L32.9197 2Z" fill="#183645"/>
<path d="M22.4385 20.6667L26.5232 23V27.6667L22.4385 30L18.3538 27.6667V23L22.4385 20.6667Z" fill="#183645"/>
<path d="M32.9197 20.6667L37.0044 23V27.6667L32.9197 30L28.835 27.6667V23L32.9197 20.6667Z" fill="#183645"/>
<path d="M22.4385 39.3333L26.5232 41.6666V46.3333L22.4385 48.6666L18.3538 46.3333V41.6666L22.4385 39.3333Z" fill="#183645"/>
<path d="M32.9197 39.3333L37.0044 41.6666V46.3333L32.9197 48.6666L28.835 46.3333V41.6666L32.9197 39.3333Z" fill="#183645"/>
<path d="M11.9573 2L16.042 4.33333V9L11.9573 11.3333L7.87262 9V4.33333L11.9573 2Z" fill="#183645"/>
<path d="M11.9573 20.6667L16.042 23V27.6667L11.9573 30L7.87262 27.6667V23L11.9573 20.6667Z" fill="#183645"/>
<path d="M11.9573 39.3333L16.042 41.6666V46.3333L11.9573 48.6666L7.87262 46.3333V41.6666L11.9573 39.3333Z" fill="#183645"/>
<path d="M17.1978 11.3334L21.2825 13.6667V18.3334L17.1978 20.6667L13.1131 18.3334V13.6667L17.1978 11.3334Z" fill="#183645"/>
<path d="M17.1978 30L21.2825 32.3333V37L17.1978 39.3333L13.1131 37V32.3333L17.1978 30Z" fill="#183645"/>
<path d="M17.1978 48.6667L21.2825 51V55.6667L17.1978 58L13.1131 55.6667V51L17.1978 48.6667Z" fill="#183645"/>
<path d="M6.71658 48.6667L10.8013 51V55.6667L6.71658 58L2.6319 55.6667V51L6.71658 48.6667Z" fill="#183645"/>
<path d="M27.6792 48.6667L31.7639 51V55.6667L27.6792 58L23.5945 55.6667V51L27.6792 48.6667Z" fill="#183645"/>
<path d="M6.71658 30L10.8013 32.3333V37L6.71658 39.3333L2.6319 37V32.3333L6.71658 30Z" fill="#183645"/>
<path d="M27.6792 30L31.7639 32.3333V37L27.6792 39.3333L23.5945 37V32.3333L27.6792 30Z" fill="#183645"/>
<path d="M6.71658 11.3334L10.8013 13.6667V18.3334L6.71658 20.6667L2.6319 18.3334V13.6667L6.71658 11.3334Z" fill="#183645"/>
<path d="M27.6792 11.3334L31.7639 13.6667V18.3334L27.6792 20.6667L23.5945 18.3334V13.6667L27.6792 11.3334Z" fill="#183645"/>
<path d="M54.0022 2L58.0869 4.33333V9L54.0022 11.3333L49.9175 9V4.33333L54.0022 2Z" fill="#183645"/>
<path d="M64.4834 2L68.5681 4.33333V9L64.4834 11.3333L60.3987 9V4.33333L64.4834 2Z" fill="#183645"/>
<path d="M54.0022 20.6667L58.0869 23V27.6667L54.0022 30L49.9175 27.6667V23L54.0022 20.6667Z" fill="#183645"/>
<path d="M64.4834 20.6667L68.5681 23V27.6667L64.4834 30L60.3987 27.6667V23L64.4834 20.6667Z" fill="#183645"/>
<path d="M54.0022 39.3333L58.0869 41.6666V46.3333L54.0022 48.6666L49.9175 46.3333V41.6666L54.0022 39.3333Z" fill="#183645"/>
<path d="M64.4834 39.3333L68.5681 41.6666V46.3333L64.4834 48.6666L60.3987 46.3333V41.6666L64.4834 39.3333Z" fill="#183645"/>
<path d="M43.521 2L47.6057 4.33333V9L43.521 11.3333L39.4363 9V4.33333L43.521 2Z" fill="#183645"/>
<path d="M43.521 20.6667L47.6057 23V27.6667L43.521 30L39.4363 27.6667V23L43.521 20.6667Z" fill="#183645"/>
<path d="M43.521 39.3333L47.6057 41.6666V46.3333L43.521 48.6666L39.4363 46.3333V41.6666L43.521 39.3333Z" fill="#183645"/>
<path d="M48.7615 11.3334L52.8462 13.6667V18.3334L48.7615 20.6667L44.6768 18.3334V13.6667L48.7615 11.3334Z" fill="#183645"/>
<path d="M48.7615 30L52.8462 32.3333V37L48.7615 39.3333L44.6768 37V32.3333L48.7615 30Z" fill="#183645"/>
<path d="M48.7615 48.6667L52.8462 51V55.6667L48.7615 58L44.6768 55.6667V51L48.7615 48.6667Z" fill="#183645"/>
<path d="M38.2803 48.6667L42.365 51V55.6667L38.2803 58L34.1956 55.6667V51L38.2803 48.6667Z" fill="#183645"/>
<path d="M59.2429 48.6667L63.3276 51V55.6667L59.2429 58L55.1583 55.6667V51L59.2429 48.6667Z" fill="#183645"/>
<path d="M38.2803 30L42.365 32.3333V37L38.2803 39.3333L34.1956 37V32.3333L38.2803 30Z" fill="#183645"/>
<path d="M59.2429 30L63.3276 32.3333V37L59.2429 39.3333L55.1583 37V32.3333L59.2429 30Z" fill="#183645"/>
<path d="M38.2803 11.3334L42.365 13.6667V18.3334L38.2803 20.6667L34.1956 18.3334V13.6667L38.2803 11.3334Z" fill="#183645"/>
<path d="M59.2429 11.3334L63.3276 13.6667V18.3334L59.2429 20.6667L55.1583 18.3334V13.6667L59.2429 11.3334Z" fill="#183645"/>
<path d="M85.5657 2L89.6504 4.33333V9L85.5657 11.3333L81.481 9V4.33333L85.5657 2Z" fill="#183645"/>
<path d="M96.0469 2L100.132 4.33333V9L96.0469 11.3333L91.9622 9V4.33333L96.0469 2Z" fill="#183645"/>
<path d="M85.5657 20.6667L89.6504 23V27.6667L85.5657 30L81.481 27.6667V23L85.5657 20.6667Z" fill="#183645"/>
<path d="M96.0469 20.6667L100.132 23V27.6667L96.0469 30L91.9622 27.6667V23L96.0469 20.6667Z" fill="#183645"/>
<path d="M85.5657 39.3333L89.6504 41.6666V46.3333L85.5657 48.6666L81.481 46.3333V41.6666L85.5657 39.3333Z" fill="#183645"/>
<path d="M96.0469 39.3333L100.132 41.6666V46.3333L96.0469 48.6666L91.9622 46.3333V41.6666L96.0469 39.3333Z" fill="#183645"/>
<path d="M75.0845 2L79.1692 4.33333V9L75.0845 11.3333L70.9998 9V4.33333L75.0845 2Z" fill="#183645"/>
<path d="M75.0845 20.6667L79.1692 23V27.6667L75.0845 30L70.9998 27.6667V23L75.0845 20.6667Z" fill="#183645"/>
<path d="M75.0845 39.3333L79.1692 41.6666V46.3333L75.0845 48.6666L70.9998 46.3333V41.6666L75.0845 39.3333Z" fill="#183645"/>
<path d="M80.325 11.3334L84.4097 13.6667V18.3334L80.325 20.6667L76.2403 18.3334V13.6667L80.325 11.3334Z" fill="#183645"/>
<path d="M80.325 30L84.4097 32.3333V37L80.325 39.3333L76.2403 37V32.3333L80.325 30Z" fill="#183645"/>
<path d="M80.325 48.6667L84.4097 51V55.6667L80.325 58L76.2403 55.6667V51L80.325 48.6667Z" fill="#183645"/>
<path d="M69.8438 48.6667L73.9285 51V55.6667L69.8438 58L65.7591 55.6667V51L69.8438 48.6667Z" fill="#183645"/>
<path d="M90.8064 48.6667L94.8911 51V55.6667L90.8064 58L86.7217 55.6667V51L90.8064 48.6667Z" fill="#183645"/>
<path d="M69.8438 30L73.9285 32.3333V37L69.8438 39.3333L65.7591 37V32.3333L69.8438 30Z" fill="#183645"/>
<path d="M90.8064 30L94.8911 32.3333V37L90.8064 39.3333L86.7217 37V32.3333L90.8064 30Z" fill="#183645"/>
<path d="M69.8438 11.3334L73.9285 13.6667V18.3334L69.8438 20.6667L65.7591 18.3334V13.6667L69.8438 11.3334Z" fill="#183645"/>
<path d="M90.8064 11.3334L94.8911 13.6667V18.3334L90.8064 20.6667L86.7217 18.3334V13.6667L90.8064 11.3334Z" fill="#183645"/>
<path d="M117.129 2L121.214 4.33333V9L117.129 11.3333L113.045 9V4.33333L117.129 2Z" fill="#183645"/>
<path d="M127.611 2L131.695 4.33333V9L127.611 11.3333L123.526 9V4.33333L127.611 2Z" fill="#183645"/>
<path d="M117.129 20.6667L121.214 23V27.6667L117.129 30L113.045 27.6667V23L117.129 20.6667Z" fill="#183645"/>
<path d="M127.611 20.6667L131.695 23V27.6667L127.611 30L123.526 27.6667V23L127.611 20.6667Z" fill="#183645"/>
<path d="M117.129 39.3333L121.214 41.6666V46.3333L117.129 48.6666L113.045 46.3333V41.6666L117.129 39.3333Z" fill="#183645"/>
<path d="M127.611 39.3333L131.695 41.6666V46.3333L127.611 48.6666L123.526 46.3333V41.6666L127.611 39.3333Z" fill="#183645"/>
<path d="M106.648 2L110.733 4.33333V9L106.648 11.3333L102.564 9V4.33333L106.648 2Z" fill="#183645"/>
<path d="M106.648 20.6667L110.733 23V27.6667L106.648 30L102.564 27.6667V23L106.648 20.6667Z" fill="#183645"/>
<path d="M106.648 39.3333L110.733 41.6666V46.3333L106.648 48.6666L102.564 46.3333V41.6666L106.648 39.3333Z" fill="#183645"/>
<path d="M111.889 11.3334L115.973 13.6667V18.3334L111.889 20.6667L107.804 18.3334V13.6667L111.889 11.3334Z" fill="#183645"/>
<path d="M111.889 30L115.973 32.3333V37L111.889 39.3333L107.804 37V32.3333L111.889 30Z" fill="#183645"/>
<path d="M111.889 48.6667L115.973 51V55.6667L111.889 58L107.804 55.6667V51L111.889 48.6667Z" fill="#183645"/>
<path d="M101.407 48.6667L105.492 51V55.6667L101.407 58L97.3228 55.6667V51L101.407 48.6667Z" fill="#183645"/>
<path d="M122.37 48.6667L126.455 51V55.6667L122.37 58L118.285 55.6667V51L122.37 48.6667Z" fill="#183645"/>
<path d="M101.407 30L105.492 32.3333V37L101.407 39.3333L97.3228 37V32.3333L101.407 30Z" fill="#183645"/>
<path d="M122.37 30L126.455 32.3333V37L122.37 39.3333L118.285 37V32.3333L122.37 30Z" fill="#183645"/>
<path d="M101.407 11.3334L105.492 13.6667V18.3334L101.407 20.6667L97.3228 18.3334V13.6667L101.407 11.3334Z" fill="#183645"/>
<path d="M122.37 11.3334L126.455 13.6667V18.3334L122.37 20.6667L118.285 18.3334V13.6667L122.37 11.3334Z" fill="#183645"/>
<path d="M148.693 2L152.778 4.33333V9L148.693 11.3333L144.608 9V4.33333L148.693 2Z" fill="#183645"/>
<path d="M159.174 2L163.259 4.33333V9L159.174 11.3333L155.09 9V4.33333L159.174 2Z" fill="#183645"/>
<path d="M148.693 20.6667L152.778 23V27.6667L148.693 30L144.608 27.6667V23L148.693 20.6667Z" fill="#183645"/>
<path d="M159.174 20.6667L163.259 23V27.6667L159.174 30L155.09 27.6667V23L159.174 20.6667Z" fill="#183645"/>
<path d="M148.693 39.3333L152.778 41.6666V46.3333L148.693 48.6666L144.608 46.3333V41.6666L148.693 39.3333Z" fill="#183645"/>
<path d="M159.174 39.3333L163.259 41.6666V46.3333L159.174 48.6666L155.09 46.3333V41.6666L159.174 39.3333Z" fill="#183645"/>
<path d="M138.212 2L142.297 4.33333V9L138.212 11.3333L134.127 9V4.33333L138.212 2Z" fill="#183645"/>
<path d="M138.212 20.6667L142.297 23V27.6667L138.212 30L134.127 27.6667V23L138.212 20.6667Z" fill="#183645"/>
<path d="M138.212 39.3333L142.297 41.6666V46.3333L138.212 48.6666L134.127 46.3333V41.6666L138.212 39.3333Z" fill="#183645"/>
<path d="M143.452 11.3334L147.537 13.6667V18.3334L143.452 20.6667L139.368 18.3334V13.6667L143.452 11.3334Z" fill="#183645"/>
<path d="M143.452 30L147.537 32.3333V37L143.452 39.3333L139.368 37V32.3333L143.452 30Z" fill="#183645"/>
<path d="M143.452 48.6667L147.537 51V55.6667L143.452 58L139.368 55.6667V51L143.452 48.6667Z" fill="#183645"/>
<path d="M132.971 48.6667L137.056 51V55.6667L132.971 58L128.887 55.6667V51L132.971 48.6667Z" fill="#183645"/>
<path d="M153.934 48.6667L158.019 51V55.6667L153.934 58L149.849 55.6667V51L153.934 48.6667Z" fill="#183645"/>
<path d="M132.971 30L137.056 32.3333V37L132.971 39.3333L128.887 37V32.3333L132.971 30Z" fill="#183645"/>
<path d="M153.934 30L158.019 32.3333V37L153.934 39.3333L149.849 37V32.3333L153.934 30Z" fill="#183645"/>
<path d="M132.971 11.3334L137.056 13.6667V18.3334L132.971 20.6667L128.887 18.3334V13.6667L132.971 11.3334Z" fill="#183645"/>
<path d="M153.934 11.3334L158.019 13.6667V18.3334L153.934 20.6667L149.849 18.3334V13.6667L153.934 11.3334Z" fill="#183645"/>
<path d="M180.257 39.3333L184.341 41.6666V46.3333L180.257 48.6666L176.172 46.3333V41.6666L180.257 39.3333Z" fill="#183645"/>
<path d="M169.775 20.6667L173.86 23V27.6667L169.775 30L165.691 27.6667V23L169.775 20.6667Z" fill="#183645"/>
<path d="M169.775 39.3333L173.86 41.6666V46.3333L169.775 48.6666L165.691 46.3333V41.6666L169.775 39.3333Z" fill="#183645"/>
<path d="M175.016 30L179.101 32.3333V37L175.016 39.3333L170.931 37V32.3333L175.016 30Z" fill="#183645"/>
<path d="M175.016 48.6667L179.101 51V55.6667L175.016 58L170.931 55.6667V51L175.016 48.6667Z" fill="#183645"/>
<path d="M164.535 48.6667L168.619 51V55.6667L164.535 58L160.45 55.6667V51L164.535 48.6667Z" fill="#183645"/>
<path d="M185.497 48.6667L189.582 51V55.6667L185.497 58L181.413 55.6667V51L185.497 48.6667Z" fill="#183645"/>
<path d="M164.535 30L168.619 32.3333V37L164.535 39.3333L160.45 37V32.3333L164.535 30Z" fill="#183645"/>
<path d="M164.535 11.3334L168.619 13.6667V18.3334L164.535 20.6667L160.45 18.3334V13.6667L164.535 11.3334Z" fill="#183645"/>
<path d="M855.016 2L850.931 4.33333V9L855.016 11.3333L859.101 9V4.33333L855.016 2Z" fill="#183645"/>
<path d="M844.535 2L840.45 4.33333V9L844.535 11.3333L848.62 9V4.33333L844.535 2Z" fill="#183645"/>
<path d="M855.016 20.6667L850.931 23V27.6667L855.016 30L859.101 27.6667V23L855.016 20.6667Z" fill="#183645"/>
<path d="M844.535 20.6667L840.45 23V27.6667L844.535 30L848.62 27.6667V23L844.535 20.6667Z" fill="#183645"/>
<path d="M855.016 39.3333L850.931 41.6666V46.3333L855.016 48.6666L859.101 46.3333V41.6666L855.016 39.3333Z" fill="#183645"/>
<path d="M844.535 39.3333L840.45 41.6666V46.3333L844.535 48.6666L848.62 46.3333V41.6666L844.535 39.3333Z" fill="#183645"/>
<path d="M865.497 2L861.413 4.33333V9L865.497 11.3333L869.582 9V4.33333L865.497 2Z" fill="#183645"/>
<path d="M865.497 20.6667L861.413 23V27.6667L865.497 30L869.582 27.6667V23L865.497 20.6667Z" fill="#183645"/>
<path d="M865.497 39.3333L861.413 41.6666V46.3333L865.497 48.6666L869.582 46.3333V41.6666L865.497 39.3333Z" fill="#183645"/>
<path d="M860.257 11.3334L856.172 13.6667V18.3334L860.257 20.6667L864.341 18.3334V13.6667L860.257 11.3334Z" fill="#183645"/>
<path d="M860.257 30L856.172 32.3333V37L860.257 39.3333L864.341 37V32.3333L860.257 30Z" fill="#183645"/>
<path d="M860.257 48.6667L856.172 51V55.6667L860.257 58L864.341 55.6667V51L860.257 48.6667Z" fill="#183645"/>
<path d="M870.738 48.6667L866.653 51V55.6667L870.738 58L874.823 55.6667V51L870.738 48.6667Z" fill="#183645"/>
<path d="M849.775 48.6667L845.691 51V55.6667L849.775 58L853.86 55.6667V51L849.775 48.6667Z" fill="#183645"/>
<path d="M870.738 30L866.653 32.3333V37L870.738 39.3333L874.823 37V32.3333L870.738 30Z" fill="#183645"/>
<path d="M849.775 30L845.691 32.3333V37L849.775 39.3333L853.86 37V32.3333L849.775 30Z" fill="#183645"/>
<path d="M870.738 11.3334L866.653 13.6667V18.3334L870.738 20.6667L874.823 18.3334V13.6667L870.738 11.3334Z" fill="#183645"/>
<path d="M849.775 11.3334L845.691 13.6667V18.3334L849.775 20.6667L853.86 18.3334V13.6667L849.775 11.3334Z" fill="#183645"/>
<path d="M823.452 2L819.368 4.33333V9L823.452 11.3333L827.537 9V4.33333L823.452 2Z" fill="#183645"/>
<path d="M812.971 2L808.886 4.33333V9L812.971 11.3333L817.056 9V4.33333L812.971 2Z" fill="#183645"/>
<path d="M823.452 20.6667L819.368 23V27.6667L823.452 30L827.537 27.6667V23L823.452 20.6667Z" fill="#183645"/>
<path d="M812.971 20.6667L808.886 23V27.6667L812.971 30L817.056 27.6667V23L812.971 20.6667Z" fill="#183645"/>
<path d="M823.452 39.3333L819.368 41.6666V46.3333L823.452 48.6666L827.537 46.3333V41.6666L823.452 39.3333Z" fill="#183645"/>
<path d="M812.971 39.3333L808.886 41.6666V46.3333L812.971 48.6666L817.056 46.3333V41.6666L812.971 39.3333Z" fill="#183645"/>
<path d="M833.934 2L829.849 4.33333V9L833.934 11.3333L838.018 9V4.33333L833.934 2Z" fill="#183645"/>
<path d="M833.934 20.6667L829.849 23V27.6667L833.934 30L838.018 27.6667V23L833.934 20.6667Z" fill="#183645"/>
<path d="M833.934 39.3333L829.849 41.6666V46.3333L833.934 48.6666L838.018 46.3333V41.6666L833.934 39.3333Z" fill="#183645"/>
<path d="M828.693 11.3334L824.608 13.6667V18.3334L828.693 20.6667L832.778 18.3334V13.6667L828.693 11.3334Z" fill="#183645"/>
<path d="M828.693 30L824.608 32.3333V37L828.693 39.3333L832.778 37V32.3333L828.693 30Z" fill="#183645"/>
<path d="M828.693 48.6667L824.608 51V55.6667L828.693 58L832.778 55.6667V51L828.693 48.6667Z" fill="#183645"/>
<path d="M839.174 48.6667L835.09 51V55.6667L839.174 58L843.259 55.6667V51L839.174 48.6667Z" fill="#183645"/>
<path d="M818.212 48.6667L814.127 51V55.6667L818.212 58L822.296 55.6667V51L818.212 48.6667Z" fill="#183645"/>
<path d="M839.174 30L835.09 32.3333V37L839.174 39.3333L843.259 37V32.3333L839.174 30Z" fill="#183645"/>
<path d="M818.212 30L814.127 32.3333V37L818.212 39.3333L822.296 37V32.3333L818.212 30Z" fill="#183645"/>
<path d="M839.174 11.3334L835.09 13.6667V18.3334L839.174 20.6667L843.259 18.3334V13.6667L839.174 11.3334Z" fill="#183645"/>
<path d="M818.212 11.3334L814.127 13.6667V18.3334L818.212 20.6667L822.296 18.3334V13.6667L818.212 11.3334Z" fill="#183645"/>
<path d="M791.889 2L787.804 4.33333V9L791.889 11.3333L795.974 9V4.33333L791.889 2Z" fill="#183645"/>
<path d="M781.408 2L777.323 4.33333V9L781.408 11.3333L785.492 9V4.33333L781.408 2Z" fill="#183645"/>
<path d="M791.889 20.6667L787.804 23V27.6667L791.889 30L795.974 27.6667V23L791.889 20.6667Z" fill="#183645"/>
<path d="M781.408 20.6667L777.323 23V27.6667L781.408 30L785.492 27.6667V23L781.408 20.6667Z" fill="#183645"/>
<path d="M791.889 39.3333L787.804 41.6666V46.3333L791.889 48.6666L795.974 46.3333V41.6666L791.889 39.3333Z" fill="#183645"/>
<path d="M781.408 39.3333L777.323 41.6666V46.3333L781.408 48.6666L785.492 46.3333V41.6666L781.408 39.3333Z" fill="#183645"/>
<path d="M802.37 2L798.285 4.33333V9L802.37 11.3333L806.455 9V4.33333L802.37 2Z" fill="#183645"/>
<path d="M802.37 20.6667L798.285 23V27.6667L802.37 30L806.455 27.6667V23L802.37 20.6667Z" fill="#183645"/>
<path d="M802.37 39.3333L798.285 41.6666V46.3333L802.37 48.6666L806.455 46.3333V41.6666L802.37 39.3333Z" fill="#183645"/>
<path d="M797.13 11.3334L793.045 13.6667V18.3334L797.13 20.6667L801.214 18.3334V13.6667L797.13 11.3334Z" fill="#183645"/>
<path d="M797.13 30L793.045 32.3333V37L797.13 39.3333L801.214 37V32.3333L797.13 30Z" fill="#183645"/>
<path d="M797.13 48.6667L793.045 51V55.6667L797.13 58L801.214 55.6667V51L797.13 48.6667Z" fill="#183645"/>
<path d="M807.611 48.6667L803.526 51V55.6667L807.611 58L811.695 55.6667V51L807.611 48.6667Z" fill="#183645"/>
<path d="M786.648 48.6667L782.563 51V55.6667L786.648 58L790.733 55.6667V51L786.648 48.6667Z" fill="#183645"/>
<path d="M807.611 30L803.526 32.3333V37L807.611 39.3333L811.695 37V32.3333L807.611 30Z" fill="#183645"/>
<path d="M786.648 30L782.563 32.3333V37L786.648 39.3333L790.733 37V32.3333L786.648 30Z" fill="#183645"/>
<path d="M807.611 11.3334L803.526 13.6667V18.3334L807.611 20.6667L811.695 18.3334V13.6667L807.611 11.3334Z" fill="#183645"/>
<path d="M786.648 11.3334L782.563 13.6667V18.3334L786.648 20.6667L790.733 18.3334V13.6667L786.648 11.3334Z" fill="#183645"/>
<path d="M760.325 2L756.24 4.33333V9L760.325 11.3333L764.41 9V4.33333L760.325 2Z" fill="#183645"/>
<path d="M749.844 2L745.759 4.33333V9L749.844 11.3333L753.929 9V4.33333L749.844 2Z" fill="#183645"/>
<path d="M760.325 20.6667L756.24 23V27.6667L760.325 30L764.41 27.6667V23L760.325 20.6667Z" fill="#183645"/>
<path d="M749.844 20.6667L745.759 23V27.6667L749.844 30L753.929 27.6667V23L749.844 20.6667Z" fill="#183645"/>
<path d="M760.325 39.3333L756.24 41.6666V46.3333L760.325 48.6666L764.41 46.3333V41.6666L760.325 39.3333Z" fill="#183645"/>
<path d="M749.844 39.3333L745.759 41.6666V46.3333L749.844 48.6666L753.929 46.3333V41.6666L749.844 39.3333Z" fill="#183645"/>
<path d="M770.806 2L766.722 4.33333V9L770.806 11.3333L774.891 9V4.33333L770.806 2Z" fill="#183645"/>
<path d="M770.806 20.6667L766.722 23V27.6667L770.806 30L774.891 27.6667V23L770.806 20.6667Z" fill="#183645"/>
<path d="M770.806 39.3333L766.722 41.6666V46.3333L770.806 48.6666L774.891 46.3333V41.6666L770.806 39.3333Z" fill="#183645"/>
<path d="M765.566 11.3334L761.481 13.6667V18.3334L765.566 20.6667L769.651 18.3334V13.6667L765.566 11.3334Z" fill="#183645"/>
<path d="M765.566 30L761.481 32.3333V37L765.566 39.3333L769.651 37V32.3333L765.566 30Z" fill="#183645"/>
<path d="M765.566 48.6667L761.481 51V55.6667L765.566 58L769.651 55.6667V51L765.566 48.6667Z" fill="#183645"/>
<path d="M776.047 48.6667L771.962 51V55.6667L776.047 58L780.132 55.6667V51L776.047 48.6667Z" fill="#183645"/>
<path d="M755.084 48.6667L751 51V55.6667L755.084 58L759.169 55.6667V51L755.084 48.6667Z" fill="#183645"/>
<path d="M776.047 30L771.962 32.3333V37L776.047 39.3333L780.132 37V32.3333L776.047 30Z" fill="#183645"/>
<path d="M755.084 30L751 32.3333V37L755.084 39.3333L759.169 37V32.3333L755.084 30Z" fill="#183645"/>
<path d="M776.047 11.3334L771.962 13.6667V18.3334L776.047 20.6667L780.132 18.3334V13.6667L776.047 11.3334Z" fill="#183645"/>
<path d="M755.084 11.3334L751 13.6667V18.3334L755.084 20.6667L759.169 18.3334V13.6667L755.084 11.3334Z" fill="#183645"/>
<path d="M728.761 2L724.677 4.33333V9L728.761 11.3333L732.846 9V4.33333L728.761 2Z" fill="#183645"/>
<path d="M718.28 2L714.196 4.33333V9L718.28 11.3333L722.365 9V4.33333L718.28 2Z" fill="#183645"/>
<path d="M728.761 20.6667L724.677 23V27.6667L728.761 30L732.846 27.6667V23L728.761 20.6667Z" fill="#183645"/>
<path d="M718.28 20.6667L714.196 23V27.6667L718.28 30L722.365 27.6667V23L718.28 20.6667Z" fill="#183645"/>
<path d="M728.761 39.3333L724.677 41.6666V46.3333L728.761 48.6666L732.846 46.3333V41.6666L728.761 39.3333Z" fill="#183645"/>
<path d="M718.28 39.3333L714.196 41.6666V46.3333L718.28 48.6666L722.365 46.3333V41.6666L718.28 39.3333Z" fill="#183645"/>
<path d="M739.243 2L735.158 4.33333V9L739.243 11.3333L743.327 9V4.33333L739.243 2Z" fill="#183645"/>
<path d="M739.243 20.6667L735.158 23V27.6667L739.243 30L743.327 27.6667V23L739.243 20.6667Z" fill="#183645"/>
<path d="M739.243 39.3333L735.158 41.6666V46.3333L739.243 48.6666L743.327 46.3333V41.6666L739.243 39.3333Z" fill="#183645"/>
<path d="M734.002 11.3334L729.917 13.6667V18.3334L734.002 20.6667L738.087 18.3334V13.6667L734.002 11.3334Z" fill="#183645"/>
<path d="M734.002 30L729.917 32.3333V37L734.002 39.3333L738.087 37V32.3333L734.002 30Z" fill="#183645"/>
<path d="M734.002 48.6667L729.917 51V55.6667L734.002 58L738.087 55.6667V51L734.002 48.6667Z" fill="#183645"/>
<path d="M744.483 48.6667L740.399 51V55.6667L744.483 58L748.568 55.6667V51L744.483 48.6667Z" fill="#183645"/>
<path d="M723.521 48.6667L719.436 51V55.6667L723.521 58L727.605 55.6667V51L723.521 48.6667Z" fill="#183645"/>
<path d="M744.483 30L740.399 32.3333V37L744.483 39.3333L748.568 37V32.3333L744.483 30Z" fill="#183645"/>
<path d="M723.521 30L719.436 32.3333V37L723.521 39.3333L727.605 37V32.3333L723.521 30Z" fill="#183645"/>
<path d="M744.483 11.3334L740.399 13.6667V18.3334L744.483 20.6667L748.568 18.3334V13.6667L744.483 11.3334Z" fill="#183645"/>
<path d="M723.521 11.3334L719.436 13.6667V18.3334L723.521 20.6667L727.605 18.3334V13.6667L723.521 11.3334Z" fill="#183645"/>
<path d="M697.198 39.3333L693.113 41.6666V46.3333L697.198 48.6666L701.283 46.3333V41.6666L697.198 39.3333Z" fill="#183645"/>
<path d="M707.679 20.6667L703.594 23V27.6667L707.679 30L711.764 27.6667V23L707.679 20.6667Z" fill="#183645"/>
<path d="M707.679 39.3333L703.594 41.6666V46.3333L707.679 48.6666L711.764 46.3333V41.6666L707.679 39.3333Z" fill="#183645"/>
<path d="M702.439 30L698.354 32.3333V37L702.439 39.3333L706.523 37V32.3333L702.439 30Z" fill="#183645"/>
<path d="M702.439 48.6667L698.354 51V55.6667L702.439 58L706.523 55.6667V51L702.439 48.6667Z" fill="#183645"/>
<path d="M712.92 48.6667L708.835 51V55.6667L712.92 58L717.005 55.6667V51L712.92 48.6667Z" fill="#183645"/>
<path d="M691.957 48.6667L687.873 51V55.6667L691.957 58L696.042 55.6667V51L691.957 48.6667Z" fill="#183645"/>
<path d="M712.92 30L708.835 32.3333V37L712.92 39.3333L717.005 37V32.3333L712.92 30Z" fill="#183645"/>
<path d="M712.92 11.3334L708.835 13.6667V18.3334L712.92 20.6667L717.005 18.3334V13.6667L712.92 11.3334Z" fill="#183645"/>
<defs>
<filter id="filter0_b_266_43585" x="-80" y="-80" width="1038" height="220" filterUnits="userSpaceOnUse" color-interpolation-filters="sRGB">
<feFlood flood-opacity="0" result="BackgroundImageFix"/>
<feGaussianBlur in="BackgroundImageFix" stdDeviation="40"/>
<feComposite in2="SourceAlpha" operator="in" result="effect1_backgroundBlur_266_43585"/>
<feBlend mode="normal" in="SourceGraphic" in2="effect1_backgroundBlur_266_43585" result="shape"/>
</filter>
</defs>
</svg>
