<svg width="192" height="37" viewBox="0 0 192 37" fill="none" xmlns="http://www.w3.org/2000/svg">
<path d="M22.2047 30.2999L24.3195 28.1736L22.2047 36.1472V30.2999Z" fill="#00D8FF"/>
<path d="M31.1924 4.78419V7.44208L37.0079 0L31.1924 4.78419Z" fill="#00D8FF"/>
<path d="M22.2047 21.7947V16.2131L26.4342 12.2263V8.77102L30.135 5.04998V11.1631L24.3195 16.4789V19.6683L22.2047 21.7947Z" fill="#00D8FF"/>
<path d="M32.2497 12.2263L31.1924 11.1631V8.50523L33.8358 10.6315V16.4789L18.5039 31.8946V29.2367L32.2497 15.4157V12.2263Z" fill="#00D8FF"/>
<path d="M18.5039 23.3894V25.5157L21.1474 22.8578V20.7315L18.5039 23.3894Z" fill="#00D8FF"/>
<path d="M18.5039 19.6683V21.7947L21.1474 19.1368V17.0105L18.5039 19.6683Z" fill="#00D8FF"/>
<path d="M25.3768 17.0105V18.6826L30.135 12.7578L25.3768 17.0105Z" fill="#00D8FF"/>
<path d="M14.8031 30.2999L12.6884 28.1736L14.8031 36.1472L14.8031 30.2999Z" fill="#00D8FF"/>
<path d="M5.81552 4.78419V7.44208L0 0L5.81552 4.78419Z" fill="#00D8FF"/>
<path d="M14.8031 21.7947V16.2131L10.5737 12.2263V8.77102L6.87289 5.04998V11.1631L12.6884 16.4789V19.6683L14.8031 21.7947Z" fill="#00D8FF"/>
<path d="M4.75815 12.2263L5.81552 11.1631V8.50523L3.1721 10.6315V16.4789L18.5039 31.8946V29.2367L4.75815 15.4157V12.2263Z" fill="#00D8FF"/>
<path d="M18.5039 23.3894V25.5157L15.8605 22.8578V20.7315L18.5039 23.3894Z" fill="#00D8FF"/>
<path d="M18.5039 19.6683V21.7947L15.8605 19.1368V17.0105L18.5039 19.6683Z" fill="#00D8FF"/>
<path d="M11.631 17.0105V18.6826L6.87289 12.7578L11.631 17.0105Z" fill="#00D8FF"/>
<path d="M48.8274 26.4828V9.95399H64.159V12.4333H51.3594V16.9558H61.6502V19.481H51.3594V24.0034H64.159V26.4828H48.8274Z" fill="#00D8FF"/>
<path d="M66.5894 26.4828V9.93103H69.0982V24.0034H83.3148V26.4828H66.5894Z" fill="#00D8FF"/>
<path d="M97.0049 26.4828L90.9187 9.95399H93.5901L98.027 21.9833L102.464 9.95399H105.112L109.572 21.9833L113.986 9.95399H116.68L110.594 26.4828H108.527L103.788 13.627L99.0491 26.4828H97.0049Z" fill="#00D8FF"/>
<path d="M118.017 26.4828V12.9383C118.017 12.1119 118.312 11.4079 118.9 10.8263C119.489 10.2448 120.201 9.95399 121.037 9.95399H131.7C132.536 9.95399 133.248 10.2448 133.837 10.8263C134.441 11.4079 134.743 12.1119 134.743 12.9383V26.4828H132.211V20.6977H120.526V26.4828H118.017ZM120.526 18.2184H132.211V13.2827C132.211 12.946 132.157 12.7241 132.048 12.617C131.94 12.4945 131.707 12.4333 131.351 12.4333H121.386C121.045 12.4333 120.813 12.4945 120.689 12.617C120.58 12.7241 120.526 12.946 120.526 13.2827V18.2184Z" fill="#00D8FF"/>
<path d="M140.409 26.4828C139.573 26.4828 138.861 26.192 138.272 25.6104C137.684 25.0288 137.39 24.3248 137.39 23.4984V12.9383C137.39 12.1119 137.684 11.4079 138.272 10.8263C138.861 10.2448 139.573 9.95399 140.409 9.95399H151.072C151.908 9.95399 152.62 10.2448 153.209 10.8263C153.813 11.4079 154.115 12.1119 154.115 12.9383V13.9255H151.583V13.2827C151.583 12.946 151.529 12.7241 151.42 12.617C151.312 12.4945 151.08 12.4333 150.723 12.4333H140.758C140.417 12.4333 140.185 12.4945 140.061 12.617C139.953 12.7241 139.898 12.946 139.898 13.2827V23.154C139.898 23.4907 139.953 23.7203 140.061 23.8427C140.185 23.9499 140.417 24.0034 140.758 24.0034H150.723C151.08 24.0034 151.312 23.9499 151.42 23.8427C151.529 23.7203 151.583 23.4907 151.583 23.154V19.9172H147.634V17.4149H154.115V23.4984C154.115 24.3248 153.813 25.0288 153.209 25.6104C152.62 26.192 151.908 26.4828 151.072 26.4828H140.409Z" fill="#00D8FF"/>
<path d="M163.342 26.4828V20.2845L155.63 9.95399H158.58L164.597 17.4608L170.59 9.95399H173.563L165.851 20.2845V26.4828H163.342Z" fill="#00D8FF"/>
<path d="M175.274 26.4828V9.93103H177.783V24.0034H192V26.4828H175.274Z" fill="#00D8FF"/>
</svg>
