<svg version="1.1" xmlns="http://www.w3.org/2000/svg" xmlns:xlink="http://www.w3.org/1999/xlink" width="68px" height="68px" viewBox="0,0,256,256"><g fill="none" fill-rule="nonzero" stroke="none" stroke-width="1" stroke-linecap="butt" stroke-linejoin="none" stroke-miterlimit="10" stroke-dasharray="" stroke-dashoffset="0" font-family="none" font-weight="none" font-size="none" text-anchor="none" style="mix-blend-mode: normal"><path transform="scale(3.76471,3.76471)" d="M37.24023,3.18359l17,9.82031c0.7998,0.46002 1.24023,1.05035 1.24023,1.65039v0.01953c0,0.04004 -0.02148,0.08105 -0.02148,0.12109c-0.00977,0.10999 -0.01855,0.22034 -0.05859,0.32031c-0.03027,0.09003 -0.09082,0.17004 -0.14062,0.25c-0.02979,0.06 -0.0498,0.11969 -0.09961,0.17969c-0.04004,0.06 -0.10059,0.10992 -0.15039,0.16992c-0.2002,0.20996 -0.43994,0.40985 -0.75,0.58984l-16.89062,9.82031c-0.7998,0.46002 -1.81006,0.70978 -2.84961,0.75977h-0.00977c-1.02002,0.04999 -2.01953,-0.09039 -2.84961,-0.40039h-0.01953c-0.27979,-0.10004 -0.5415,-0.21936 -0.77148,-0.35937l-17.00977,-9.81055c-0.18994,-0.11999 -0.35986,-0.23938 -0.51953,-0.35937c0,-0.01001 -0.00977,-0.00977 -0.00977,-0.00977c-0.08008,-0.07001 -0.12939,-0.14099 -0.19922,-0.21094c-0.06006,-0.07001 -0.1416,-0.12921 -0.19141,-0.19922c0,0 0.00049,-0.00976 -0.00976,-0.00976c-0.19971,-0.28003 -0.31055,-0.58087 -0.31055,-0.88086c0,-0.59998 0.43115,-1.19061 1.21094,-1.64062l16.90039,-9.82031c0.88965,-0.51996 2.06982,-0.7793 3.25,-0.7793c1.17969,0 2.35986,0.25934 3.25977,0.7793zM12.70898,16.45508c0.04004,0.03998 0.08106,0.06964 0.12109,0.09961c0.19043,0.16003 0.38916,0.3092 0.62891,0.44922l17.01172,9.82031c1.02002,0.59003 2.33838,0.89063 3.64844,0.89063h0.01172v29.57031c-0.63037,0.01001 -1.23047,-0.04968 -1.80078,-0.17969c-0.02978,0 -0.0498,-0.01147 -0.08008,-0.02148c-0.22949,-0.04999 -0.44971,-0.11944 -0.66992,-0.18945c-0.0498,-0.02002 -0.10059,-0.04053 -0.14062,-0.06055c-0.24023,-0.09003 -0.45996,-0.1886 -0.66992,-0.30859l-17,-9.82031c-0.81055,-0.46002 -1.25,-1.05017 -1.25,-1.66016l0.08984,-28.66992c0.02979,0.03003 0.06982,0.05005 0.09961,0.08008zM55.43945,26.97461l-20.50977,11.91992v-11.23047c1.02979,-0.10004 2.0293,-0.36981 2.83984,-0.83984l16.89063,-9.82031c0.02002,-0.01001 0.0293,-0.02905 0.04883,-0.03906c0.21045,-0.11999 0.40039,-0.26038 0.57031,-0.40039c0.04004,-0.02997 0.08154,-0.06964 0.11133,-0.09961c0.03027,-0.02002 0.05957,-0.04034 0.08984,-0.07031zM55.41016,36.22461l-20.48047,11.90039v-8.30078l20.50977,-11.91992zM55.38086,45.06445c0,0.07001 -0.021,0.14093 -0.03125,0.21094c-0.07959,0.47998 -0.42969,0.92859 -1.00977,1.30859c-0.06006,0.03998 -0.10937,0.09107 -0.17969,0.12109l-6.57031,3.83008l-10.32031,5.99023c-0.02051,0.01001 -0.04004,0.01935 -0.06055,0.0293c-0.16992,0.10004 -0.35889,0.17981 -0.54883,0.25977c-0.1001,0.04004 -0.20117,0.0694 -0.30078,0.10938c-0.12012,0.04004 -0.23926,0.0813 -0.36914,0.11133c-0.12012,0.02997 -0.22949,0.06988 -0.35937,0.08984c-0.10986,0.03003 -0.23145,0.04858 -0.35156,0.05859c-0.12012,0.02002 -0.22949,0.04059 -0.34961,0.06055v-8.18945l20.48047,-11.90039zM57.16016,44.20508c0.91016,0.52002 1.43945,1.22943 1.43945,1.93945v0.01953c0,0.16998 -0.02979,0.33997 -0.08984,0.5c-0.01025,0.02997 -0.02881,0.05963 -0.03906,0.09961c-0.0498,0.10999 -0.11133,0.22034 -0.18164,0.32031c-0.0498,0.07001 -0.09814,0.14093 -0.1582,0.21094c-0.1001,0.12 -0.20166,0.23962 -0.3418,0.34961c-0.00977,0.01001 -0.01855,0.01935 -0.03906,0.0293c-0.15967,0.14001 -0.34082,0.26086 -0.54102,0.38086c-0.00977,0.01001 -0.01904,0.01953 -0.03906,0.01953l-4.48047,2.60938l-14.85937,8.64063c-0.21973,0.13001 -0.47022,0.23981 -0.73047,0.33984c-0.02979,0.00995 -0.05029,0.03101 -0.08008,0.04102c-0.05029,0.02002 -0.10986,0.03857 -0.16992,0.05859c-0.15967,0.06 -0.33984,0.11035 -0.50977,0.15039c-0.1499,0.03998 -0.31055,0.08105 -0.4707,0.12109c-0.19971,0.03998 -0.3999,0.06964 -0.59961,0.09961c-0.07031,0.01001 -0.13867,0.0293 -0.21875,0.0293c-0.16992,0.01996 -0.34033,0.02124 -0.5,0.03125h-0.01172c-0.77979,0.04004 -1.5498,-0.01996 -2.25,-0.16992h-0.0293c-0.02979,-0.01001 -0.06006,-0.02124 -0.08984,-0.03125c-0.30029,-0.06 -0.60059,-0.1402 -0.88086,-0.24023c-0.00977,-0.01001 -0.03906,-0.00958 -0.04883,-0.01953c-0.02002,-0.01001 -0.021,-0.00977 -0.03125,-0.00977c-0.26953,-0.10004 -0.5083,-0.21985 -0.73828,-0.33984l-12.86133,-7.41016l-6.75,-3.90039c-0.18994,-0.09998 -0.33984,-0.21985 -0.5,-0.33984c-0.04004,-0.03003 -0.08887,-0.05987 -0.11914,-0.08984c-0.16992,-0.14001 -0.2998,-0.28943 -0.41992,-0.43945c-0.01025,-0.02002 -0.03125,-0.04053 -0.05078,-0.06055c-0.09033,-0.13001 -0.15869,-0.27038 -0.20898,-0.40039c-0.02979,-0.06 -0.05029,-0.10992 -0.07031,-0.16992c-0.04004,-0.15002 -0.07031,-0.28943 -0.07031,-0.43945l-0.00977,-0.00977c0,-0.70996 0.51025,-1.38989 1.41992,-1.91992l0.89063,-0.52148l-0.01172,1.36133c0,0.90997 0.59033,1.74939 1.65039,2.35938l17,9.82031c0.21973,0.11999 0.47021,0.23987 0.74023,0.33984c0.1001,0.04004 0.20117,0.0694 0.29102,0.10938c0.09033,0.02002 0.16943,0.05988 0.25977,0.08984c0.06982,0.02002 0.14893,0.03082 0.21875,0.05078c0.54004,0.15002 1.10156,0.2298 1.68164,0.25977c0.06006,0.01001 0.10986,0.00977 0.16992,0.00977c0.1001,0.01001 0.19873,0.02148 0.30859,0.02148c0.1001,0 0.21045,-0.01147 0.31055,-0.02148c0.0498,0 0.10059,0.00024 0.15039,-0.00977c0.62012,-0.02997 1.21875,-0.12909 1.7793,-0.28906c0.11963,-0.03003 0.24121,-0.07129 0.36133,-0.11133c0.11963,-0.03998 0.23926,-0.07892 0.35938,-0.12891c0.20996,-0.09003 0.41895,-0.19073 0.61914,-0.30078c0.02002,-0.00995 0.04053,-0.00928 0.06055,-0.0293l11.78906,-6.84961l5.11133,-2.96094c0.06006,-0.04004 0.1001,-0.08917 0.16016,-0.11914c0.72949,-0.46002 1.19922,-1.03992 1.36914,-1.66992c0.05029,-0.17999 0.08984,-0.36078 0.08984,-0.55078v-1.41992zM9.4707,48.01367c0.06982,0.07001 0.13916,0.15094 0.20898,0.21094c0.06006,0.04999 0.13086,0.10016 0.20117,0.16016h0.00977c0.16992,0.14001 0.3584,0.27038 0.56836,0.40039l19.49023,11.25c0.0498,0.01996 0.10059,0.03857 0.15039,0.05859c0.04004,0.02997 0.09082,0.05011 0.15039,0.08008c0.05029,0.03003 0.10938,0.06159 0.19922,0.10156c0.06006,0.02997 0.14111,0.06891 0.30078,0.12891c0.03027,0.01996 0.06006,0.0293 0.08008,0.0293c0.03027,0.01001 0.05957,0.03101 0.08984,0.04102c0.02002,0.01001 0.05078,0.01953 0.05078,0.01953c0.14014,0.06 0.27979,0.10065 0.41992,0.14063h0.01953c0.07031,0.02002 0.12939,0.02887 0.18945,0.04883c0.18994,0.05005 0.38037,0.10065 0.57031,0.14063c0.07959,0.02002 0.17041,0.04053 0.31055,0.06055c0.07959,0.02002 0.14892,0.01929 0.21875,0.0293c0.16016,0.01996 0.31104,0.04053 0.46094,0.06055c0.07031,0.01001 0.1499,0.00958 0.24023,0.01953h0.10938c0.12988,0.01001 0.27051,0.01953 0.39063,0.01953c0.08984,0 0.1792,0.01172 0.26953,0.01172l0.08008,4.56836c-1.48975,0.01996 -2.8999,-0.27917 -3.92969,-0.86914l-19.46094,-11.25c-0.9502,-0.54004 -1.45898,-1.22925 -1.45898,-1.94922l0.00977,-3.57031c0.02002,0.02002 0.04053,0.03857 0.06055,0.05859zM58.58984,51.55469c0,0.71002 -0.50977,1.38965 -1.42969,1.92969l-19.33984,11.24023c-0.78027,0.44995 -1.74951,0.72986 -2.76953,0.83984l-0.08008,-4.58984c0.18994,-0.02002 0.37842,-0.04034 0.56836,-0.07031c0.11035,-0.02002 0.22021,-0.01886 0.32031,-0.04883c0.0498,-0.01001 0.09082,-0.02124 0.14063,-0.03125c0.2002,-0.03998 0.39014,-0.09058 0.58008,-0.14062c0.08008,-0.01996 0.15088,-0.03857 0.2207,-0.05859c0.12012,-0.02997 0.22998,-0.08105 0.33984,-0.12109c0.09033,-0.02997 0.18897,-0.05963 0.2793,-0.09961c0.2998,-0.12 0.57031,-0.23889 0.82031,-0.37891l14.71875,-8.57031l4.62109,-2.67969c0.02002,-0.02002 0.04004,-0.04077 0.07031,-0.05078c0.12012,-0.07001 0.22998,-0.14093 0.33984,-0.21094c0.03027,-0.02997 0.06006,-0.05005 0.08984,-0.08008c0.04004,-0.02997 0.0791,-0.05963 0.12891,-0.09961c0.1001,-0.08002 0.20117,-0.16974 0.29102,-0.25977c0.03027,-0.02997 0.06982,-0.05005 0.09961,-0.08008z" id="strokeMainSVG" fill="#ff0000" stroke="#ff0000" stroke-linejoin="round"></path><g transform="scale(3.76471,3.76471)" fill="#ffffff" stroke="none" stroke-linejoin="miter"><path d="M33.98047,2.4043c-1.18018,0 -2.36035,0.25934 -3.25,0.7793l-16.90039,9.82031c-0.77979,0.45001 -1.21094,1.04065 -1.21094,1.64063c0,0.29999 0.11084,0.60083 0.31055,0.88086c0.01025,0 0.00976,0.00976 0.00976,0.00976c0.0498,0.07001 0.13135,0.12921 0.19141,0.19922c0.06983,0.06995 0.11914,0.14093 0.19922,0.21094c0,0 0.00977,-0.00024 0.00977,0.00977c0.15967,0.11999 0.32959,0.23938 0.51953,0.35938l17.00977,9.81055c0.22998,0.14001 0.4917,0.25934 0.77148,0.35938h0.01953c0.83008,0.31 1.82959,0.45038 2.84961,0.40039h0.00977c1.03955,-0.04999 2.0498,-0.29974 2.84961,-0.75977l16.89063,-9.82031c0.31006,-0.17999 0.5498,-0.37988 0.75,-0.58984c0.0498,-0.06 0.11035,-0.10992 0.15039,-0.16992c0.0498,-0.06 0.06982,-0.11969 0.09961,-0.17969c0.0498,-0.07996 0.11035,-0.15997 0.14063,-0.25c0.04004,-0.09997 0.04883,-0.21033 0.05859,-0.32031c0,-0.04004 0.02148,-0.08105 0.02148,-0.12109v-0.00977v-0.00976c0,-0.60004 -0.44043,-1.19037 -1.24023,-1.65039l-17,-9.82031c-0.8999,-0.51996 -2.08008,-0.7793 -3.25977,-0.7793zM33.98047,5.50391c0.7998,0 1.40869,0.19135 1.70898,0.36133l12.65039,7.29883c0.5498,0.32001 0.86914,0.88001 0.86914,1.5c0,0.63001 -0.31934,1.19 -0.85937,1.5l-12.53906,7.29102c-0.2998,0.16998 -0.90137,0.35938 -1.69141,0.35938c-0.7998,0 -1.40918,-0.18939 -1.70898,-0.35937l-12.66016,-7.31055c-0.54004,-0.31 -0.85937,-0.88001 -0.85937,-1.5c0,-0.63001 0.31934,-1.19 0.85938,-1.5l12.5293,-7.28906c0.37988,-0.21002 1.04102,-0.35156 1.70117,-0.35156zM33.98047,6.30469c-0.64014,0 -1.13086,0.15002 -1.30078,0.25l-12.5293,7.2793c-0.29004,0.16998 -0.46094,0.47052 -0.46094,0.81055c0,0.33002 0.1709,0.64081 0.4707,0.80078l12.65039,7.30859c0.17041,0.10004 0.61865,0.25977 1.30859,0.25977c0.68017,0 1.14111,-0.16998 1.29102,-0.25l12.53906,-7.28906c0.29004,-0.17004 0.46094,-0.47058 0.46094,-0.81055c0,-0.33002 -0.1709,-0.62878 -0.4707,-0.79883l-12.65039,-7.31055c-0.1499,-0.08997 -0.61865,-0.25 -1.30859,-0.25zM30.88867,11.54102c0.56873,0.01375 1.12647,0.15857 1.52148,0.43359l3.7207,2.56055c0.54004,0.36999 0.48828,0.92957 -0.10156,1.26953c-0.6001,0.35004 -1.55908,0.37054 -2.19922,0.06055l-4.40039,-2.16992c-0.94971,-0.45996 -1.00879,-1.29077 -0.12891,-1.80078c0.43994,-0.25 1.01917,-0.36726 1.58789,-0.35351zM37.80273,15.89063c0.41504,0.00124 0.82666,0.09341 1.13672,0.27344c0.63965,0.37 0.63965,0.96008 0,1.33008c-0.64014,0.36999 -1.66846,0.36999 -2.29883,0c-0.62988,-0.35999 -0.63037,-0.96008 0.00977,-1.33008c0.31982,-0.185 0.7373,-0.27468 1.15234,-0.27344zM12.60938,16.375l-0.08984,28.66992c0,0.60999 0.43945,1.20013 1.25,1.66016l17,9.82031c0.20996,0.12 0.42969,0.21857 0.66992,0.30859c0.04004,0.02002 0.09082,0.04053 0.14063,0.06055c0.22021,0.07001 0.44043,0.13947 0.66992,0.18945c0.03027,0.01001 0.05029,0.02148 0.08008,0.02148c0.57031,0.13001 1.17041,0.1897 1.80078,0.17969v-29.57031h-0.01172c-1.31006,0 -2.62842,-0.3006 -3.64844,-0.89062l-17.01172,-9.82031c-0.23975,-0.14001 -0.43848,-0.28918 -0.62891,-0.44922c-0.04004,-0.02997 -0.08106,-0.05963 -0.12109,-0.09961c-0.02978,-0.03003 -0.06982,-0.05005 -0.09961,-0.08008zM55.48047,16.39453c-0.03027,0.02997 -0.05957,0.05029 -0.08984,0.07031c-0.02978,0.02997 -0.07129,0.06964 -0.11133,0.09961c-0.16992,0.14001 -0.35986,0.2804 -0.57031,0.40039c-0.01953,0.01001 -0.02881,0.02905 -0.04883,0.03906l-16.89062,9.82031c-0.81055,0.47003 -1.81006,0.73981 -2.83984,0.83984v11.23047l20.50977,-11.91992zM47.56055,25.1543c0.41336,-0.03375 0.69922,0.27052 0.69922,0.81055c0,0.72998 -0.50049,1.61047 -1.14062,1.98047c-0.62988,0.35999 -1.14844,0.06982 -1.14844,-0.66016c0,-0.72003 0.50879,-1.61047 1.13867,-1.98047c0.15991,-0.09 0.31338,-0.13914 0.45117,-0.15039zM43.29883,27.61523c0.41343,-0.03375 0.70117,0.26862 0.70117,0.80859c0,0.73004 -0.50098,1.61047 -1.14062,1.98047c-0.62988,0.35999 -1.14014,0.06988 -1.15039,-0.66016c0,-0.71997 0.51074,-1.61047 1.14063,-1.98047c0.16004,-0.09 0.31141,-0.13719 0.44922,-0.14844zM55.43945,27.9043l-20.50977,11.91992v8.30078l20.48047,-11.90039zM39.04297,30.07422c0.40931,-0.03376 0.69727,0.27057 0.69727,0.81055c0,0.72998 -0.50049,1.61066 -1.14062,1.9707c-0.62988,0.37 -1.14062,0.07959 -1.15039,-0.65039c0,-0.71997 0.52051,-1.61047 1.15039,-1.98047c0.15759,-0.09001 0.30692,-0.13914 0.44336,-0.15039zM47.56055,35.25c0.41336,-0.03516 0.69922,0.27448 0.69922,0.81445c0,0.73004 -0.50049,1.61066 -1.14062,1.9707c-0.62988,0.36999 -1.14844,0.07959 -1.14844,-0.65039c0,-0.71997 0.50879,-1.62048 1.13867,-1.98047c0.15991,-0.0925 0.31338,-0.14258 0.45117,-0.1543zM55.41016,37.1543l-20.48047,11.90039v8.18945c0.12012,-0.01996 0.22949,-0.04053 0.34961,-0.06055c0.12012,-0.01001 0.2417,-0.02857 0.35156,-0.05859c0.12988,-0.01996 0.23926,-0.05988 0.35938,-0.08984c0.12988,-0.03003 0.24902,-0.07129 0.36914,-0.11133c0.09961,-0.03998 0.20068,-0.06934 0.30078,-0.10937c0.18994,-0.07996 0.37891,-0.15973 0.54883,-0.25977c0.02051,-0.00995 0.04004,-0.01929 0.06055,-0.0293l10.32031,-5.99023l6.57031,-3.83008c0.07031,-0.03003 0.11963,-0.08112 0.17969,-0.12109c0.58008,-0.38001 0.93018,-0.82861 1.00977,-1.30859c0.01025,-0.07001 0.03125,-0.14093 0.03125,-0.21094zM43.29883,37.71094c0.41343,-0.03515 0.70117,0.27443 0.70117,0.81445c0,0.71997 -0.50098,1.60876 -1.14062,1.96875c-0.62988,0.37 -1.14014,0.07959 -1.15039,-0.65039c0,-0.72003 0.51074,-1.61847 1.14063,-1.97852c0.16004,-0.0925 0.31141,-0.14258 0.44922,-0.1543zM39.04297,40.16992c0.40931,-0.03515 0.69727,0.27443 0.69727,0.81445c0,0.71997 -0.50049,1.60071 -1.14062,1.9707c-0.62988,0.35999 -1.14062,0.06964 -1.15039,-0.65039c0,-0.71997 0.52051,-1.62048 1.15039,-1.98047c0.15759,-0.0925 0.30692,-0.14258 0.44336,-0.1543zM56.18945,43.64453v1.41992c0,0.19 -0.03955,0.37079 -0.08984,0.55078c-0.16992,0.63 -0.63965,1.2099 -1.36914,1.66992c-0.06006,0.02997 -0.1001,0.0791 -0.16016,0.11914l-5.11133,2.96094l-11.78906,6.84961c-0.02002,0.02002 -0.04053,0.01935 -0.06055,0.0293c-0.2002,0.11005 -0.40918,0.21075 -0.61914,0.30078c-0.12012,0.04999 -0.23975,0.08893 -0.35937,0.12891c-0.12012,0.04004 -0.2417,0.0813 -0.36133,0.11133c-0.56055,0.15997 -1.15918,0.25909 -1.7793,0.28906c-0.0498,0.01001 -0.10059,0.00977 -0.15039,0.00977c-0.1001,0.01001 -0.21045,0.02148 -0.31055,0.02148c-0.10986,0 -0.2085,-0.01147 -0.30859,-0.02148c-0.06006,0 -0.10986,0.00024 -0.16992,-0.00977c-0.58008,-0.02997 -1.1416,-0.10974 -1.68164,-0.25977c-0.06982,-0.01996 -0.14893,-0.03076 -0.21875,-0.05078c-0.09033,-0.02997 -0.16943,-0.06982 -0.25977,-0.08984c-0.08984,-0.03998 -0.19092,-0.06934 -0.29102,-0.10937c-0.27002,-0.09998 -0.52051,-0.21985 -0.74023,-0.33984l-17,-9.82031c-1.06006,-0.60999 -1.65039,-1.4494 -1.65039,-2.35937l0.01172,-1.36133l-0.89062,0.52148c-0.90967,0.53003 -1.41992,1.20996 -1.41992,1.91992l0.00977,0.00977c0,0.15002 0.03027,0.28943 0.07031,0.43945c0.02002,0.06 0.04053,0.10992 0.07031,0.16992c0.05029,0.13001 0.11865,0.27038 0.20898,0.40039c0.01953,0.02002 0.04053,0.04053 0.05078,0.06055c0.12012,0.15002 0.25,0.29944 0.41992,0.43945c0.03027,0.02997 0.0791,0.05982 0.11914,0.08984c0.16016,0.12 0.31006,0.23987 0.5,0.33984l6.75,3.90039l12.86133,7.41016c0.22998,0.12 0.46875,0.23981 0.73828,0.33984c0.01025,0 0.01123,-0.00024 0.03125,0.00977c0.00977,0.00995 0.03906,0.00952 0.04883,0.01953c0.28027,0.10004 0.58057,0.18024 0.88086,0.24023c0.02978,0.01001 0.06006,0.02124 0.08984,0.03125h0.0293c0.7002,0.14996 1.47021,0.20996 2.25,0.16992h0.01172c0.15967,-0.01001 0.33008,-0.01129 0.5,-0.03125c0.08008,0 0.14844,-0.01929 0.21875,-0.0293c0.19971,-0.02997 0.3999,-0.05963 0.59961,-0.09961c0.16016,-0.04004 0.3208,-0.08112 0.4707,-0.12109c0.16992,-0.04004 0.3501,-0.09039 0.50977,-0.15039c0.06006,-0.02002 0.11963,-0.03857 0.16992,-0.05859c0.02978,-0.01001 0.05029,-0.03107 0.08008,-0.04102c0.26025,-0.10004 0.51074,-0.20984 0.73047,-0.33984l14.85938,-8.64062l4.48047,-2.60937c0.02002,0 0.0293,-0.00952 0.03906,-0.01953c0.2002,-0.12 0.38135,-0.24085 0.54102,-0.38086c0.02051,-0.00995 0.0293,-0.01929 0.03906,-0.0293c0.14014,-0.10999 0.2417,-0.22961 0.3418,-0.34961c0.06006,-0.07001 0.1084,-0.14093 0.1582,-0.21094c0.07031,-0.09998 0.13184,-0.21033 0.18164,-0.32031c0.01025,-0.03998 0.02881,-0.06964 0.03906,-0.09961c0.06006,-0.16003 0.08984,-0.33002 0.08984,-0.5v-0.01953c0,-0.71002 -0.5293,-1.41943 -1.43945,-1.93945zM47.56055,44.89453c0.41336,-0.03376 0.69922,0.27057 0.69922,0.81055c0,0.72998 -0.50049,1.60852 -1.14062,1.97852c-0.62988,0.36005 -1.14844,0.07178 -1.14844,-0.6582c0,-0.72003 0.50879,-1.61047 1.13867,-1.98047c0.15991,-0.09001 0.31338,-0.13914 0.45117,-0.15039zM43.29883,47.35547c0.41343,-0.03375 0.70117,0.26857 0.70117,0.80859c0,0.72998 -0.50098,1.61047 -1.14062,1.98047c-0.62988,0.35999 -1.14014,0.06982 -1.15039,-0.66016c0,-0.72003 0.51074,-1.61047 1.14063,-1.98047c0.16004,-0.09 0.31141,-0.13719 0.44922,-0.14844zM9.41016,47.95508l-0.00977,3.57031c0,0.71997 0.50879,1.40918 1.45898,1.94922l19.46094,11.25c1.02979,0.58997 2.43994,0.8891 3.92969,0.86914l-0.08008,-4.56836c-0.09033,0 -0.17969,-0.01172 -0.26953,-0.01172c-0.12012,0 -0.26074,-0.00952 -0.39062,-0.01953h-0.10937c-0.09033,-0.00995 -0.16992,-0.00952 -0.24023,-0.01953c-0.1499,-0.02002 -0.30078,-0.04059 -0.46094,-0.06055c-0.06983,-0.01001 -0.13916,-0.00928 -0.21875,-0.0293c-0.14014,-0.02002 -0.23096,-0.04053 -0.31055,-0.06055c-0.18994,-0.03998 -0.38037,-0.09058 -0.57031,-0.14062c-0.06006,-0.01996 -0.11914,-0.02881 -0.18945,-0.04883h-0.01953c-0.14014,-0.03998 -0.27979,-0.08063 -0.41992,-0.14062c0,0 -0.03076,-0.00952 -0.05078,-0.01953c-0.03027,-0.01001 -0.05957,-0.03101 -0.08984,-0.04102c-0.02002,0 -0.0498,-0.00934 -0.08008,-0.0293c-0.15967,-0.06 -0.24072,-0.09894 -0.30078,-0.12891c-0.08984,-0.03998 -0.14893,-0.07153 -0.19922,-0.10156c-0.05957,-0.02997 -0.11035,-0.05011 -0.15039,-0.08008c-0.0498,-0.02002 -0.10059,-0.03863 -0.15039,-0.05859l-19.49023,-11.25c-0.20996,-0.13001 -0.39844,-0.26038 -0.56836,-0.40039h-0.00977c-0.07031,-0.06 -0.14111,-0.11017 -0.20117,-0.16016c-0.06982,-0.06 -0.13916,-0.14093 -0.20898,-0.21094c-0.02002,-0.02002 -0.04053,-0.03857 -0.06055,-0.05859zM58.59961,47.99414c-0.02979,0.03003 -0.06934,0.05011 -0.09961,0.08008c-0.08984,0.09003 -0.19092,0.17975 -0.29102,0.25977c-0.0498,0.03998 -0.08887,0.06964 -0.12891,0.09961c-0.02978,0.03003 -0.05957,0.05011 -0.08984,0.08008c-0.10986,0.07001 -0.21973,0.14093 -0.33984,0.21094c-0.03027,0.01001 -0.05029,0.03076 -0.07031,0.05078l-4.62109,2.67969l-14.71875,8.57031c-0.25,0.14001 -0.52051,0.25891 -0.82031,0.37891c-0.09033,0.03998 -0.18897,0.06964 -0.2793,0.09961c-0.10986,0.04004 -0.21973,0.09113 -0.33984,0.12109c-0.06982,0.02002 -0.14062,0.03863 -0.2207,0.05859c-0.18994,0.05005 -0.37988,0.10065 -0.58008,0.14063c-0.0498,0.01001 -0.09082,0.02124 -0.14062,0.03125c-0.1001,0.02997 -0.20996,0.02881 -0.32031,0.04883c-0.18994,0.02997 -0.37842,0.05029 -0.56836,0.07031l0.08008,4.58984c1.02002,-0.10998 1.98926,-0.38989 2.76953,-0.83984l19.33984,-11.24023c0.91992,-0.54004 1.42969,-1.21966 1.42969,-1.92969zM39.04297,49.81445c0.40931,-0.03375 0.69727,0.27057 0.69727,0.81055c0,0.73004 -0.50049,1.60876 -1.14062,1.96875c-0.62988,0.37 -1.14062,0.08154 -1.15039,-0.64844c0,-0.71997 0.52051,-1.61047 1.15039,-1.98047c0.15759,-0.09 0.30692,-0.13914 0.44336,-0.15039z"></path></g></g></svg>