<svg width="140" height="26" viewBox="0 0 140 26" fill="none" xmlns="http://www.w3.org/2000/svg">
<g clip-path="url(#clip0_2513_8295)">
<path d="M18.3424 11.6477C18.3424 15.3231 15.3581 18.3032 11.6772 18.3032V4.99212C15.3581 4.99212 18.3424 7.97213 18.3424 11.6477Z" fill="#00D8FF"/>
<path d="M5.01203 11.6478C5.01203 15.3232 7.99631 18.3033 11.6771 18.3033V23.3208C5.22899 23.3208 0 18.1006 0 11.6607C0 5.22174 5.22899 0.000337601 11.6771 0.000337601V4.99224C7.99631 4.99224 5.01203 7.97225 5.01203 11.6478Z" fill="#00D8FF"/>
<path d="M25.6353 11.7203C25.6353 15.6638 28.7483 18.4282 34.2115 18.4282C36.1879 18.4282 37.827 18.0344 39.2561 17.4553V14.325C37.8598 15.0329 36.381 15.625 34.3971 15.625C31.2223 15.625 29.2429 14.1366 29.2429 11.7012C29.2429 9.32333 31.3045 7.77677 34.4384 7.77677C36.4313 7.77677 37.8608 8.37411 39.2561 9.0709V5.91658C37.8105 5.33966 36.2309 4.97399 34.2528 4.97399C28.9339 4.97399 25.6353 7.95096 25.6353 11.7203Z" fill="#00D8FF"/>
<path d="M72.4736 11.237H69.0606V7.85393H72.6389C74.6592 7.85393 75.4839 8.45334 75.4839 9.5359C75.4839 10.6763 74.4736 11.237 72.4736 11.237ZM79.1122 9.47808C79.1122 6.82962 77.1123 5.26371 73.3397 5.26371H65.4736V18.1382H69.0606V13.7308H71.711L75.6902 18.1382H79.7923L75.5045 13.4795C77.6485 12.9382 79.1122 11.5658 79.1122 9.47808Z" fill="#00D8FF"/>
<path d="M83.4248 8.02834H88.8425V18.1382H92.4295V8.02834H97.8472V5.26382H83.4248V8.02834Z" fill="#00D8FF"/>
<path d="M102.932 18.1382H115.416V15.5092H106.457V12.822H113.107V10.425H106.457V7.89305H115.416V5.26382H102.932V18.1382Z" fill="#00D8FF"/>
<path d="M129.413 11.6045L135.203 5.26404H130.955L127.307 9.5785L123.645 5.26404H119.254L125.043 11.6433L119.089 18.1384H123.336L127.15 13.8738L130.976 18.1384H135.367L129.413 11.6045Z" fill="#00D8FF"/>
<path d="M48.3591 11.6984C48.3591 14.0965 50.1409 15.5083 52.4068 15.5083C54.6922 15.5083 56.4934 14.0965 56.4934 11.6984C56.4934 9.28093 54.6922 7.88856 52.4068 7.88856C50.1409 7.88856 48.3591 9.28093 48.3591 11.6984ZM60.4055 11.6984C60.4055 15.7597 57.2293 18.4866 52.4068 18.4866C47.6231 18.4866 44.4468 15.7597 44.4468 11.6984C44.4468 7.63721 47.6231 4.91028 52.4068 4.91028C57.2293 4.91028 60.4055 7.65644 60.4055 11.6984Z" fill="#00D8FF"/>
<path d="M29.0081 25.3769C29.2229 25.3769 29.3062 25.3078 29.3062 25.1487C29.3062 24.9999 29.2229 24.9236 29.0081 24.9236H28.3565V25.3806L29.0081 25.3769ZM28.9734 24.4738C29.1745 24.4738 29.2575 24.4115 29.2575 24.2558C29.2575 24.1104 29.1675 24.0482 28.9734 24.0482H28.3565V24.4738H28.9734ZM27.6392 23.5048H29.1675C29.6734 23.5048 29.9784 23.7125 29.9784 24.1139C29.9784 24.3839 29.871 24.5742 29.5694 24.6711C29.8814 24.7957 30.0304 24.9583 30.0304 25.2455C30.0304 25.7473 29.6458 25.9272 29.112 25.9272H27.6392V23.5048Z" fill="#00D8FF"/>
<path d="M31.4907 25.1521L30.4268 23.5048H31.2447L31.8443 24.4703H31.8789L32.4853 23.5048H33.2826L32.2221 25.1487V25.9272H31.4907V25.1521Z" fill="#00D8FF"/>
<path d="M36.4818 24.761C36.7071 24.761 36.8041 24.6156 36.8041 24.4254C36.8041 24.2074 36.6967 24.0897 36.4749 24.0897H35.9065V24.761H36.4818ZM35.1787 23.5048H36.61C37.206 23.5048 37.5215 23.8474 37.5215 24.408C37.5215 25.0413 37.1159 25.332 36.5546 25.332H35.9065V25.9272H35.1787V23.5048Z" fill="#00D8FF"/>
<path d="M38.9575 24.8822H39.609L39.3491 24.1208H39.2175L38.9575 24.8822ZM38.7011 23.5048H39.8724L40.7146 25.9272H39.9521L39.7823 25.4255H38.7807L38.6075 25.9272H37.8589L38.7011 23.5048Z" fill="#00D8FF"/>
<path d="M41.3535 23.5048H42.0812V25.3009H43.367L43.3393 25.9272H41.3535V23.5048Z" fill="#00D8FF"/>
<path d="M45.8914 24.7161C45.8914 24.2974 45.6488 24.0482 45.2295 24.0482C44.8101 24.0482 44.5675 24.2974 44.5675 24.7161C44.5675 25.1348 44.8101 25.3839 45.226 25.3839C45.6453 25.3839 45.8914 25.1348 45.8914 24.7161ZM43.8433 24.7161C43.8433 23.9272 44.3803 23.4323 45.2295 23.4323C46.0785 23.4323 46.6157 23.9272 46.6157 24.7161C46.6157 25.5051 46.0785 26 45.2295 26C44.3803 26 43.8433 25.5051 43.8433 24.7161Z" fill="#00D8FF"/>
<path d="M49.5449 24.8822H50.1964L49.9365 24.1208H49.8049L49.5449 24.8822ZM49.2885 23.5048H50.4598L51.302 25.9272H50.5396L50.3697 25.4255H49.3682L49.1949 25.9272H48.4463L49.2885 23.5048Z" fill="#00D8FF"/>
<path d="M51.9409 23.5048H52.6686V25.3009H53.9544L53.9267 25.9272H51.9409V23.5048Z" fill="#00D8FF"/>
<path d="M54.9711 24.1277H54.1221L54.1498 23.5048H56.5238L56.5515 24.1277H55.7023V25.9272H54.9711V24.1277Z" fill="#00D8FF"/>
<path d="M59.0759 24.7161C59.0759 24.2974 58.8335 24.0482 58.4141 24.0482C57.9947 24.0482 57.7521 24.2974 57.7521 24.7161C57.7521 25.1348 57.9947 25.3839 58.4106 25.3839C58.8299 25.3839 59.0759 25.1348 59.0759 24.7161ZM57.0278 24.7161C57.0278 23.9272 57.5649 23.4323 58.4141 23.4323C59.2631 23.4323 59.8003 23.9272 59.8003 24.7161C59.8003 25.5051 59.2631 26 58.4141 26C57.5649 26 57.0278 25.5051 57.0278 24.7161Z" fill="#00D8FF"/>
<path d="M61.856 23.5048H62.6114L63.6545 24.8786H63.665V23.5048H64.3581V25.9272H63.6269L62.5594 24.5188H62.5491V25.9272H61.856V23.5048Z" fill="#00D8FF"/>
<path d="M65.2227 23.5048H67.3436L67.3713 24.0932H65.9469V24.4254H67.0663V24.9618H65.9469V25.3389H67.4129L67.3851 25.9272H65.2227V23.5048Z" fill="#00D8FF"/>
<path d="M68.8315 24.1277H67.9824L68.0101 23.5048H70.384L70.4117 24.1277H69.5627V25.9272H68.8315V24.1277Z" fill="#00D8FF"/>
<path d="M70.9395 23.5048H71.7157L72.1108 25.1867H72.1491L72.6618 23.5048H73.3724L73.8748 25.1867H73.913L74.3011 23.5048H75.0426L74.405 25.9272H73.452L73.0084 24.4668H72.9877L72.5371 25.9272H71.5807L70.9395 23.5048Z" fill="#00D8FF"/>
<path d="M77.5668 24.7161C77.5668 24.2974 77.3242 24.0482 76.9049 24.0482C76.4855 24.0482 76.2429 24.2974 76.2429 24.7161C76.2429 25.1348 76.4855 25.3839 76.9013 25.3839C77.3207 25.3839 77.5668 25.1348 77.5668 24.7161ZM75.5186 24.7161C75.5186 23.9272 76.0557 23.4323 76.9049 23.4323C77.7538 23.4323 78.2911 23.9272 78.2911 24.7161C78.2911 25.5051 77.7538 26 76.9049 26C76.0557 26 75.5186 25.5051 75.5186 24.7161Z" fill="#00D8FF"/>
<path d="M80.3409 24.723C80.5836 24.723 80.6701 24.588 80.6701 24.4046C80.6701 24.2213 80.5836 24.0897 80.3409 24.0897H79.7483V24.723H80.3409ZM79.0205 23.5048H80.4344C81.0791 23.5048 81.3944 23.8094 81.3944 24.3734C81.3944 24.761 81.235 25.024 80.9231 25.1487L81.4985 25.9272H80.6736L80.2265 25.2905H79.7483V25.9272H79.0205V23.5048Z" fill="#00D8FF"/>
<path d="M82.144 23.5048H82.8719V24.3977H83.1698L83.8802 23.5048H84.6982L84.7017 23.5083L83.7728 24.6676L84.7537 25.9238L84.7502 25.9272H83.9011L83.1665 24.9963H82.8719V25.9272H82.144V23.5048Z" fill="#00D8FF"/>
<path d="M85.2472 25.768V25.1036H85.2507C85.6562 25.3078 86.0512 25.4081 86.3943 25.4081C86.6542 25.4081 86.786 25.3458 86.786 25.2246C86.786 25.1036 86.6993 25.0724 86.1794 24.9894C85.6111 24.8994 85.2334 24.7298 85.2334 24.2418C85.2334 23.7885 85.6319 23.439 86.4117 23.439C86.7235 23.439 87.0494 23.5048 87.3508 23.6329V24.2903L87.3473 24.2938C87.0597 24.1276 86.6715 24.0239 86.3597 24.0239C86.0825 24.0239 85.9715 24.0896 85.9715 24.2003C85.9715 24.3423 86.1413 24.3561 86.5676 24.4287C87.1359 24.5256 87.5137 24.6848 87.5137 25.1969C87.5137 25.595 87.2157 25.9929 86.3597 25.9929C85.9368 25.9929 85.6007 25.9063 85.2472 25.768Z" fill="#00D8FF"/>
<path d="M137.808 6.3185H138.144C138.337 6.3185 138.418 6.38251 138.418 6.52649V6.54247C138.418 6.67048 138.337 6.75046 138.144 6.75046H137.808V6.3185ZM138.721 6.55855V6.51052C138.721 6.23852 138.513 6.04661 138.144 6.04661H137.503V7.51831H137.808V7.02246H138.147L138.401 7.51831H138.737L138.424 6.93596C138.616 6.87836 138.721 6.73633 138.721 6.55855Z" fill="#00D8FF"/>
<path d="M138.08 8.09425C137.327 8.09425 136.783 7.55037 136.783 6.78252C136.783 6.01456 137.327 5.47067 138.08 5.47067C138.834 5.47067 139.379 6.01456 139.379 6.78252C139.379 7.55037 138.834 8.09425 138.08 8.09425ZM138.08 5.26268C137.215 5.26268 136.559 5.91861 136.559 6.78252C136.559 7.64632 137.215 8.30225 138.08 8.30225C138.946 8.30225 139.603 7.64632 139.603 6.78252C139.603 5.91861 138.946 5.26268 138.08 5.26268Z" fill="#00D8FF"/>
</g>
<defs>
<clipPath id="clip0_2513_8295">
<rect width="140" height="26" fill="white"/>
</clipPath>
</defs>
</svg>
