<svg width="192" height="37" viewBox="0 0 192 37" fill="none" xmlns="http://www.w3.org/2000/svg">
<path d="M22.2047 30.2999L24.3195 28.1736L22.2047 36.1472V30.2999Z" fill="#00D8FF"/>
<path d="M31.1924 4.78419V7.44208L37.0079 0L31.1924 4.78419Z" fill="#00D8FF"/>
<path d="M22.2047 21.7947V16.2131L26.4342 12.2263V8.77102L30.135 5.04998V11.1631L24.3195 16.4789V19.6683L22.2047 21.7947Z" fill="#00D8FF"/>
<path d="M32.2497 12.2263L31.1924 11.1631V8.50523L33.8358 10.6315V16.4789L18.5039 31.8946V29.2367L32.2497 15.4157V12.2263Z" fill="#00D8FF"/>
<path d="M18.5039 23.3894V25.5157L21.1474 22.8578V20.7315L18.5039 23.3894Z" fill="#00D8FF"/>
<path d="M18.5039 19.6683V21.7947L21.1474 19.1368V17.0105L18.5039 19.6683Z" fill="#00D8FF"/>
<path d="M25.3768 17.0105V18.6826L30.135 12.7578L25.3768 17.0105Z" fill="#00D8FF"/>
<path d="M14.8031 30.2999L12.6884 28.1736L14.8031 36.1472L14.8031 30.2999Z" fill="#00D8FF"/>
<path d="M5.81552 4.78419V7.44208L0 0L5.81552 4.78419Z" fill="#00D8FF"/>
<path d="M14.8031 21.7947V16.2131L10.5737 12.2263V8.77102L6.87289 5.04998V11.1631L12.6884 16.4789V19.6683L14.8031 21.7947Z" fill="#00D8FF"/>
<path d="M4.75815 12.2263L5.81552 11.1631V8.50523L3.1721 10.6315V16.4789L18.5039 31.8946V29.2367L4.75815 15.4157V12.2263Z" fill="#00D8FF"/>
<path d="M18.5039 23.3894V25.5157L15.8605 22.8578V20.7315L18.5039 23.3894Z" fill="#00D8FF"/>
<path d="M18.5039 19.6683V21.7947L15.8605 19.1368V17.0105L18.5039 19.6683Z" fill="#00D8FF"/>
<path d="M11.631 17.0105V18.6826L6.87289 12.7578L11.631 17.0105Z" fill="#00D8FF"/>
<path d="M48.8276 26.4829V9.95411H64.1592V12.4334H51.3597V16.9559H61.6504V19.4811H51.3597V24.0036H64.1592V26.4829H48.8276Z" fill="#00D8FF"/>
<path d="M66.5896 26.4829V9.93115H69.0984V24.0036H83.315V26.4829H66.5896Z" fill="#00D8FF"/>
<path d="M97.0051 26.4829L90.9189 9.95411H93.5903L98.0272 21.9834L102.464 9.95411H105.112L109.572 21.9834L113.986 9.95411H116.681L110.594 26.4829H108.527L103.788 13.6272L99.0493 26.4829H97.0051Z" fill="#00D8FF"/>
<path d="M118.018 26.4829V12.9385C118.018 12.112 118.312 11.408 118.9 10.8265C119.489 10.2449 120.201 9.95411 121.038 9.95411H131.7C132.536 9.95411 133.249 10.2449 133.837 10.8265C134.441 11.408 134.743 12.112 134.743 12.9385V26.4829H132.211V20.6978H120.526V26.4829H118.018ZM120.526 18.2185H132.211V13.2828C132.211 12.9461 132.157 12.7242 132.048 12.6171C131.94 12.4946 131.708 12.4334 131.351 12.4334H121.386C121.045 12.4334 120.813 12.4946 120.689 12.6171C120.581 12.7242 120.526 12.9461 120.526 13.2828V18.2185Z" fill="#00D8FF"/>
<path d="M140.41 26.4829C139.573 26.4829 138.861 26.1921 138.272 25.6105C137.684 25.029 137.39 24.325 137.39 23.4985V12.9385C137.39 12.112 137.684 11.408 138.272 10.8265C138.861 10.2449 139.573 9.95411 140.41 9.95411H151.072C151.908 9.95411 152.621 10.2449 153.209 10.8265C153.813 11.408 154.115 12.112 154.115 12.9385V13.9256H151.583V13.2828C151.583 12.9461 151.529 12.7242 151.42 12.6171C151.312 12.4946 151.08 12.4334 150.724 12.4334H140.758C140.417 12.4334 140.185 12.4946 140.061 12.6171C139.953 12.7242 139.899 12.9461 139.899 13.2828V23.1542C139.899 23.4909 139.953 23.7204 140.061 23.8429C140.185 23.95 140.417 24.0036 140.758 24.0036H150.724C151.08 24.0036 151.312 23.95 151.42 23.8429C151.529 23.7204 151.583 23.4909 151.583 23.1542V19.9173H147.634V17.415H154.115V23.4985C154.115 24.325 153.813 25.029 153.209 25.6105C152.621 26.1921 151.908 26.4829 151.072 26.4829H140.41Z" fill="#00D8FF"/>
<path d="M163.342 26.4829V20.2846L155.63 9.95411H158.58L164.597 17.4609L170.59 9.95411H173.563L165.851 20.2846V26.4829H163.342Z" fill="#00D8FF"/>
<path d="M175.275 26.4829V9.93115H177.783V24.0036H192V26.4829H175.275Z" fill="#00D8FF"/>
</svg>
