<svg width="137" height="25" viewBox="0 0 137 25" fill="none" xmlns="http://www.w3.org/2000/svg">
<g clip-path="url(#clip0_2513_8233)">
<path d="M58.2154 4.58643C56.4533 4.58643 54.6228 5.06777 52.3573 6.28374L53.6159 9.40288C55.5834 8.30195 57.2085 7.8206 58.3986 7.8206C59.7489 7.8206 60.3439 8.32515 60.3439 8.99015V9.03556C60.3439 9.49471 59.9774 9.74698 59.0853 9.83881L57.5297 9.99926C53.6391 10.412 52.0371 12.1093 52.0371 14.4484V14.6088C52.0371 16.8339 53.8676 18.5766 56.4533 18.5766C58.156 18.5766 59.6351 17.8561 60.5342 16.5847L60.8242 18.3476H64.3483V10.3434C64.3483 6.55922 62.1745 4.58643 58.2154 4.58643ZM57.872 15.5251C56.5681 15.5251 55.9499 15.0206 55.9499 14.2405V14.1951C55.9499 13.5069 56.3385 13.0023 57.7572 12.7965L58.3755 12.7047C59.2786 12.5785 59.8334 12.412 60.3439 12.1022V13.1174C60.3439 14.6543 59.3824 15.5251 57.872 15.5251Z" fill="#00D8FF"/>
<path d="M13.7713 16.0043L25.0787 4.67816L20.5678 0.1604L16.057 4.67816L18.3023 6.92644L7 18.2546L11.5058 22.7754L16.0167 18.2546L13.7713 16.0043Z" fill="#00D8FF"/>
<path d="M11.5541 0.159022L0.248047 11.49L4.75625 16.0081L16.0623 4.67714L11.5541 0.159022Z" fill="#00D8FF"/>
<path d="M27.3203 6.93124L16.0142 18.2622L20.5224 22.7803L31.8285 11.4494L27.3203 6.93124Z" fill="#00D8FF"/>
<path d="M70.6372 0H66.6328V18.3455H70.6372V0Z" fill="#00D8FF"/>
<path d="M45.3068 4.58631C43.4864 4.58631 42.0244 5.3936 41.2199 6.658L40.9138 4.81538H37.3896V22.9288H41.394V16.6491C42.1563 17.8268 43.5981 18.5715 45.3068 18.5715C48.5107 18.5715 51.1196 15.7278 51.1196 11.8054V11.3463C51.1196 7.42694 48.5107 4.58228 45.3068 4.58228M47.0004 11.6924C47.0004 13.756 45.925 15.2475 44.1398 15.2475C42.3546 15.2475 41.2793 13.757 41.2793 11.6924V11.4634C41.2793 9.39873 42.3546 7.90828 44.1398 7.90828C45.925 7.90828 47.0004 9.39873 47.0004 11.4634V11.6924Z" fill="#00D8FF"/>
<path d="M124.7 4.58643C120.604 4.58643 117.72 7.43008 117.72 11.3525V11.8116C117.72 15.733 120.604 18.5776 124.7 18.5776C128.796 18.5776 131.68 15.734 131.68 11.8116V11.3525C131.68 7.43109 128.796 4.58643 124.7 4.58643ZM127.561 11.6966C127.561 13.7602 126.485 15.2516 124.7 15.2516C122.915 15.2516 121.839 13.7612 121.839 11.6966V11.4675C121.839 9.40288 122.915 7.91243 124.7 7.91243C126.485 7.91243 127.561 9.40288 127.561 11.4675V11.6966Z" fill="#00D8FF"/>
<path d="M135.373 5.41282V5.3442C135.373 4.95468 135.076 4.6792 134.55 4.6792H133.634V6.78923H134.069V6.07782H134.553L134.916 6.78923H135.396L134.949 5.95471C135.221 5.87095 135.373 5.66711 135.373 5.41282ZM134.068 5.06871H134.549C134.823 5.06871 134.937 5.16054 134.937 5.36741V5.39062C134.937 5.57427 134.822 5.6883 134.549 5.6883H134.068V5.06871Z" fill="#00D8FF"/>
<path d="M134.467 3.55518C133.231 3.55518 132.293 4.49566 132.293 5.73383C132.293 6.972 133.231 7.91249 134.467 7.91249C135.702 7.91249 136.641 6.972 136.641 5.73383C136.641 4.49566 135.702 3.55518 134.467 3.55518ZM134.467 7.61379C133.391 7.61379 132.613 6.83375 132.613 5.73282C132.613 4.63189 133.391 3.85185 134.467 3.85185C135.542 3.85185 136.321 4.63189 136.321 5.73282C136.321 6.83375 135.542 7.61379 134.467 7.61379Z" fill="#00D8FF"/>
<path d="M105.949 0H101.944V18.3455H105.949V0Z" fill="#00D8FF"/>
<path d="M113.826 15.2477C112.659 15.2477 112.224 14.6745 112.224 13.4363V7.90845H116.938V4.81252H112.224V1.71558L108.219 2.31196V13.8258C108.219 16.9682 109.821 18.5737 113.025 18.5737C114.444 18.5737 116.114 18.1377 117.488 17.3577L116.344 14.514C115.541 14.95 114.421 15.2487 113.826 15.2487" fill="#00D8FF"/>
<path d="M93.4766 4.58643C91.7146 4.58643 89.884 5.06777 87.6185 6.28374L88.8771 9.40288C90.8446 8.30195 92.4697 7.8206 93.6599 7.8206C95.0101 7.8206 95.6052 8.32515 95.6052 8.99015V9.03556C95.6052 9.49471 95.2387 9.74698 94.3466 9.83881L92.7909 9.99926C88.9003 10.412 87.2983 12.1093 87.2983 14.4484V14.6088C87.2983 16.8339 89.1289 18.5766 91.7146 18.5766C93.4162 18.5766 94.8963 17.8561 95.7955 16.5847L96.0855 18.3476H99.6096V10.3434C99.6096 6.55922 97.4357 4.58643 93.4766 4.58643ZM93.1333 15.5251C91.8283 15.5251 91.2111 15.0206 91.2111 14.2405V14.1951C91.2111 13.5069 91.5998 13.0023 93.0185 12.7965L93.6367 12.7047C94.5399 12.5785 95.0947 12.412 95.6042 12.1022V13.1174C95.6042 14.6543 94.6436 15.5251 93.1333 15.5251Z" fill="#00D8FF"/>
<path d="M79.4002 4.58643C75.3041 4.58643 72.4204 7.43008 72.4204 11.3525V11.8116C72.4204 15.733 75.3041 18.5776 79.4002 18.5776C83.4962 18.5776 86.3799 15.734 86.3799 11.8116V11.3525C86.3789 7.43109 83.4962 4.58643 79.4002 4.58643ZM82.2597 11.6966C82.2597 13.7602 81.1844 15.2516 79.3992 15.2516C77.6139 15.2516 76.5386 13.7612 76.5386 11.6966V11.4675C76.5386 9.40288 77.6139 7.91243 79.3992 7.91243C81.1844 7.91243 82.2597 9.40288 82.2597 11.4675V11.6966Z" fill="#00D8FF"/>
<path d="M98.1989 24.9047L96.749 22.9875H96.739V24.9047H95.7925V21.605H96.8195L98.2392 23.4718H98.2493V21.605H99.1958V24.9047H98.1989Z" fill="#00D8FF"/>
<path d="M101.441 23.5828V24.0975H103.455L103.354 24.9047H100.444V21.605H103.354V22.4022H101.441V22.8563H102.951V23.5828H101.441Z" fill="#00D8FF"/>
<path d="M105.469 24.9047V22.4526H104.26V21.605H107.482L107.583 22.4526H106.375V24.9047H105.469Z" fill="#00D8FF"/>
<path d="M112.416 23.8956L112.92 21.605H113.927L113.02 24.9047H111.812L111.208 22.9067H111.107L110.503 24.9047H109.194L108.389 21.605H109.396L110 23.8956L110.705 21.605H111.711L112.316 23.8956H112.416Z" fill="#00D8FF"/>
<path d="M114.631 23.2498C114.631 22.1741 115.36 21.5 116.513 21.5C117.666 21.5 118.396 22.1741 118.396 23.2498C118.396 24.3255 117.667 24.9996 116.513 24.9996C115.36 24.9996 114.631 24.3245 114.631 23.2498ZM117.412 23.2498C117.412 22.6796 117.083 22.3396 116.513 22.3396C115.943 22.3396 115.614 22.6796 115.614 23.2498C115.614 23.8209 115.943 24.16 116.508 24.16C117.078 24.16 117.412 23.8199 117.412 23.2498Z" fill="#00D8FF"/>
<path d="M119.464 21.605H121.384C122.259 21.605 122.688 22.0197 122.688 22.7887C122.688 23.3164 122.472 23.6757 122.048 23.8452L122.829 24.9068H121.71L121.103 24.0389H120.453V24.9068H119.464V21.605ZM121.257 23.265C121.586 23.265 121.704 23.0813 121.704 22.831C121.704 22.5808 121.586 22.4022 121.257 22.4022H120.452V23.265H121.257Z" fill="#00D8FF"/>
<path d="M126.21 23.1893L127.519 24.8947V24.9047H126.412L125.405 23.6333H125.002V24.9047H123.995V21.605H125.002V22.8159H125.405L126.311 21.605H127.519L126.21 23.1893Z" fill="#00D8FF"/>
<path d="M128.325 24.6827V23.7775H128.33C128.881 24.056 129.417 24.1923 129.882 24.1923C130.236 24.1923 130.414 24.1075 130.414 23.942C130.414 23.7765 130.296 23.7341 129.59 23.6211C128.819 23.499 128.306 23.2669 128.306 22.6019C128.306 21.9844 128.847 21.5081 129.906 21.5081C130.329 21.5081 130.772 21.5979 131.181 21.7724V22.6685L131.176 22.6736C130.786 22.4475 130.259 22.3052 129.835 22.3052C129.459 22.3052 129.309 22.3951 129.309 22.5454C129.309 22.7392 129.539 22.7573 130.118 22.8572C130.889 22.9894 131.403 23.2064 131.403 23.9047C131.403 24.4466 130.998 24.9895 129.836 24.9895C129.262 24.9895 128.805 24.8714 128.325 24.6827Z" fill="#00D8FF"/>
</g>
<defs>
<clipPath id="clip0_2513_8233">
<rect width="137" height="25" fill="white"/>
</clipPath>
</defs>
</svg>
