<svg width="98" height="98" viewBox="0 0 98 98" fill="none" xmlns="http://www.w3.org/2000/svg">
<circle cx="49.5" cy="48.5" r="46.5" fill="#00B2D2"/>
<circle cx="49.5" cy="48.5" r="32.5" fill="#00D8FF"/>
<path fill-rule="evenodd" clip-rule="evenodd" d="M50.5244 5L52.6221 15.1934C57.126 37.0795 57.126 60.8889 52.6221 82.775L50.5244 92.9684L48.845 92.8564H47.1442L44.6367 78.9313C41.1211 59.4073 41.1211 38.5611 44.6367 19.0371L47.1442 5.11195H48.845L50.5244 5ZM48.9578 82.292L49.2634 80.8066C53.505 60.1954 53.505 37.7729 49.2634 17.1618L48.9578 15.6764L48.0385 20.7816C44.7277 39.1682 44.7277 58.8002 48.0385 77.1868L48.9578 82.292Z" fill="#101C26"/>
<path d="M44.0647 64.2286L48.5978 87.9839L54.1383 64.2286V37.1967L48.5978 10.9839L44.0647 37.1967V64.2286Z" fill="#101C26"/>
<path d="M82.0271 34.0687L88.697 31.0821C88.8211 31.0265 88.9126 31.0644 88.9714 31.1959L89.1382 31.5682C89.1938 31.6924 89.1595 31.7822 89.0354 31.8378L82.3655 34.8244C82.2414 34.88 82.1515 34.8457 82.0959 34.7216L81.9292 34.3492C81.8704 34.2178 81.903 34.1243 82.0271 34.0687Z" fill="#101C26"/>
<path d="M78.4853 27.9199L84.4455 23.6911C84.5564 23.6124 84.6535 23.6317 84.7369 23.7492L84.973 24.0819C85.0517 24.1928 85.0355 24.2876 84.9246 24.3663L78.9644 28.5952C78.8535 28.6739 78.7587 28.6578 78.68 28.5468L78.4439 28.2141C78.3606 28.0967 78.3744 27.9986 78.4853 27.9199Z" fill="#101C26"/>
<path d="M73.8138 22.5789L78.8359 17.27C78.9293 17.1712 79.0284 17.1712 79.133 17.2702L79.4294 17.5506C79.5282 17.644 79.5309 17.7402 79.4374 17.839L74.4153 23.148C74.3218 23.2468 74.2257 23.2494 74.1269 23.156L73.8305 22.8756C73.7259 22.7766 73.7203 22.6777 73.8138 22.5789Z" fill="#101C26"/>
<path d="M68.189 18.2514L72.0806 12.0657C72.153 11.9506 72.2501 11.9314 72.372 12.008L72.7174 12.2253C72.8325 12.2977 72.8538 12.3915 72.7814 12.5066L68.8899 18.6923C68.8174 18.8074 68.7237 18.8287 68.6085 18.7563L68.2632 18.5391C68.1413 18.4624 68.1166 18.3665 68.189 18.2514Z" fill="#101C26"/>
<path d="M61.8321 15.1015L64.444 8.27618C64.4926 8.14916 64.5841 8.11138 64.7186 8.16285L65.0997 8.30866C65.2267 8.35727 65.2659 8.44508 65.2173 8.5721L62.6054 15.3974C62.5568 15.5244 62.469 15.5637 62.342 15.515L61.9609 15.3692C61.8264 15.3178 61.7835 15.2285 61.8321 15.1015Z" fill="#101C26"/>
<path d="M54.9833 13.2509L56.2154 6.04747C56.2383 5.91342 56.3207 5.85853 56.4627 5.88281L56.8648 5.9516C56.9989 5.97452 57.0545 6.05301 57.0315 6.18707L55.7995 13.3905C55.7765 13.5245 55.698 13.5801 55.564 13.5572L55.1618 13.4884C55.0199 13.4641 54.9604 13.3849 54.9833 13.2509Z" fill="#101C26"/>
<path d="M47.9037 12.7709L47.7088 5.46545C47.7052 5.3295 47.7753 5.25961 47.9193 5.25576L48.3271 5.24488C48.4631 5.24125 48.5329 5.30741 48.5365 5.44337L48.7315 12.7488C48.7351 12.8847 48.6689 12.9545 48.533 12.9581L48.1251 12.969C47.9812 12.9729 47.9074 12.9068 47.9037 12.7709Z" fill="#101C26"/>
<path d="M40.8665 13.679L39.2521 6.55158C39.222 6.41894 39.2772 6.33672 39.4177 6.30491L39.8156 6.21477C39.9482 6.18473 40.0296 6.23602 40.0596 6.36866L41.6741 13.4961C41.7041 13.6287 41.6528 13.7101 41.5202 13.7401L41.1223 13.8303C40.9818 13.8621 40.8966 13.8117 40.8665 13.679Z" fill="#101C26"/>
<path d="M34.1392 15.9415L31.1671 9.26517C31.1118 9.14093 31.1499 9.04952 31.2814 8.99096L31.6542 8.82503C31.7784 8.76972 31.8682 8.80418 31.9235 8.92843L34.8956 15.6047C34.9509 15.729 34.9165 15.8188 34.7922 15.8741L34.4195 16.04C34.2879 16.0986 34.1945 16.0657 34.1392 15.9415Z" fill="#101C26"/>
<path d="M21.1276 15.2266L24.1806 12.8975C24.2888 12.815 24.3841 12.8279 24.4666 12.936L28.899 18.7463C28.9815 18.8545 28.9687 18.9498 28.8606 19.0323L25.8075 21.3613C25.7057 21.4389 25.6136 21.4237 25.5311 21.3156L25.1599 20.829C25.0775 20.7209 25.0871 20.628 25.1889 20.5503L27.3642 18.8909C27.4405 18.8327 27.4544 18.7718 27.4059 18.7081L26.1758 17.0958C26.1273 17.0321 26.0649 17.0295 25.9886 17.0877L24.1472 18.4924C24.0327 18.5797 23.9342 18.5693 23.8517 18.4612L23.4805 17.9746C23.3981 17.8665 23.4141 17.7688 23.5285 17.6814L25.3699 16.2767C25.4462 16.2185 25.4601 16.1576 25.4116 16.094L24.1161 14.3957C24.0627 14.3257 23.9979 14.3199 23.9215 14.3781L21.7462 16.0375C21.6445 16.1152 21.5523 16.0999 21.4699 15.9918L21.0987 15.5052C21.0162 15.3971 21.0258 15.3042 21.1276 15.2266Z" fill="#101C26"/>
<path d="M13.1093 23.9081L15.4608 20.8118C15.543 20.7035 15.6383 20.6904 15.7466 20.7727L21.5666 25.1925C21.6749 25.2748 21.6879 25.3701 21.6057 25.4784L21.1484 26.0804C21.0662 26.1887 20.9709 26.2018 20.8626 26.1195L15.8072 22.2803C15.7435 22.2319 15.6826 22.2459 15.6245 22.3224L13.9408 24.5395C13.8585 24.6478 13.76 24.6584 13.6454 24.5713L13.1484 24.1939C13.0401 24.1117 13.0271 24.0164 13.1093 23.9081Z" fill="#101C26"/>
<path d="M8.01378 39.8431L8.32241 39.8888C8.45694 39.9087 8.51424 39.9859 8.49432 40.1205L8.38178 40.8802C8.36185 41.0147 8.28462 41.072 8.15009 41.0521L7.93642 41.0204C7.60405 40.9712 7.35213 41.0067 7.18067 41.1268C7.01596 41.2561 6.90839 41.4909 6.85799 41.8312L6.73666 42.6502C6.68625 42.9905 6.7251 43.247 6.85318 43.4196C6.98918 43.5934 7.23128 43.7061 7.57948 43.7577L7.85251 43.7981C8.10574 43.8356 8.31824 43.766 8.48999 43.5893C8.66848 43.4216 8.79861 43.1983 8.88038 42.9192C8.97006 42.6414 9.07968 42.3382 9.20922 42.0096C9.33876 41.681 9.47607 41.3819 9.62115 41.1123C9.76623 40.8426 9.99586 40.63 10.3101 40.4743C10.6231 40.3266 11.0012 40.2856 11.4443 40.3512L11.9429 40.4251C12.5206 40.5106 12.9476 40.7397 13.224 41.1122C13.5072 41.4938 13.606 41.9735 13.5204 42.5512L13.334 43.8094C13.2473 44.3951 13.0137 44.8255 12.6332 45.1007C12.2595 45.385 11.7839 45.4844 11.2062 45.3988L10.945 45.3601C10.8105 45.3402 10.7532 45.263 10.7731 45.1284L10.8856 44.3687C10.9056 44.2342 10.9828 44.1769 11.1173 44.1968L11.2716 44.2197C11.6119 44.2701 11.8644 44.2307 12.0291 44.1014C12.2006 43.9812 12.3115 43.751 12.3619 43.4107L12.4727 42.6629C12.5231 42.3226 12.4803 42.0655 12.3443 41.8917C12.2151 41.727 11.9645 41.6171 11.5925 41.562L11.2245 41.5075C10.8684 41.4547 10.589 41.6762 10.3862 42.1718C10.2968 42.3931 10.2124 42.6354 10.1329 42.8986C10.0523 43.1697 9.95195 43.4379 9.83179 43.7031C9.71162 43.9684 9.56728 44.2058 9.39875 44.4154C9.23814 44.6261 9.01275 44.7828 8.72259 44.8853C8.44033 44.9891 8.10928 45.0129 7.72943 44.9566L7.26648 44.888C6.68878 44.8024 6.25836 44.5688 5.97522 44.1872C5.69883 43.8147 5.60341 43.3396 5.68899 42.7619L5.88592 41.4324C5.9715 40.8547 6.20113 40.4237 6.57482 40.1394C6.95643 39.8563 7.43608 39.7575 8.01378 39.8431Z" fill="#101C26"/>
<path d="M12.9747 53.0231L5.70175 53.7384C5.5664 53.7517 5.49207 53.6907 5.47876 53.5553L5.40476 52.803C5.39145 52.6676 5.45247 52.5933 5.58782 52.58L12.8607 51.8647C12.9961 51.8513 13.0704 51.9124 13.0837 52.0477L13.1577 52.8001C13.171 52.9354 13.11 53.0098 12.9747 53.0231Z" fill="#101C26"/>
<path d="M7.83339 63.831L7.4014 62.6218C7.20222 62.0643 7.2019 61.576 7.40043 61.1567C7.60164 60.745 7.97723 60.441 8.52718 60.2445L12.2902 58.9C12.8477 58.7009 13.331 58.6981 13.74 58.8918C14.1592 59.0903 14.4684 59.4683 14.6676 60.0258L15.0996 61.235C15.2988 61.7925 15.2977 62.2771 15.0965 62.6888C14.9055 63.1053 14.5313 63.4132 13.9738 63.6123L13.567 63.7577C13.4314 63.8061 13.3407 63.7663 13.2949 63.6382L13.0406 62.9263C12.9948 62.7982 13.0398 62.71 13.1754 62.6615L13.537 62.5323C14.0945 62.3332 14.2763 61.9624 14.0825 61.4199L13.7636 60.5272C13.5698 59.9848 13.1941 59.8132 12.6366 60.0123L8.964 61.3245C8.40652 61.5236 8.22467 61.8944 8.41846 62.4369L8.73741 63.3296C8.9312 63.872 9.30684 64.0436 9.86433 63.8445L10.8814 63.4811C10.9567 63.4542 10.9796 63.3993 10.95 63.3164L10.6229 62.4011C10.5772 62.273 10.6183 62.1861 10.7464 62.1404L11.3227 61.9345C11.4508 61.8887 11.5377 61.9299 11.5835 62.0579L12.2617 63.9564C12.3183 64.1146 12.2674 64.222 12.1092 64.2785L10.2107 64.9568C9.66079 65.1532 9.1762 65.1522 8.75696 64.9537C8.33773 64.7552 8.02987 64.3809 7.83339 63.831Z" fill="#101C26"/>
<path d="M12.6724 73.4702L12.2226 72.8626C12.1416 72.7533 12.1558 72.6582 12.2651 72.5772L18.1388 68.229C18.2481 68.1481 18.3432 68.1623 18.4242 68.2716L18.874 68.8792C18.9549 68.9886 18.9407 69.0837 18.8314 69.1646L16.4202 70.9496C16.3559 70.9972 16.3523 71.0595 16.4094 71.1367L17.9159 73.1717C17.9635 73.236 18.0195 73.2444 18.0838 73.1968L20.495 71.4118C20.6043 71.3309 20.6994 71.3451 20.7803 71.4544L21.2373 72.0717C21.3182 72.181 21.304 72.2761 21.1947 72.357L15.321 76.7052C15.2117 76.7861 15.1166 76.7719 15.0357 76.6626L14.5787 76.0454C14.4978 75.9361 14.512 75.8409 14.6213 75.76L17.0614 73.9536C17.1257 73.906 17.1341 73.8501 17.0865 73.7858L15.58 71.7507C15.5228 71.6736 15.4621 71.6588 15.3978 71.7064L12.9577 73.5128C12.8484 73.5937 12.7533 73.5795 12.6724 73.4702Z" fill="#101C26"/>
<path d="M22.2578 83.6341L21.6567 83.1756C21.5422 83.0883 21.5262 82.9905 21.6087 82.8824L25.4734 77.8162C25.522 77.7526 25.5144 77.6966 25.4508 77.648L24.2487 76.731C24.1342 76.6436 24.1182 76.5459 24.2007 76.4378L24.5719 75.9512C24.6543 75.8431 24.7528 75.8327 24.8673 75.92L28.407 78.6203C28.5214 78.7076 28.5374 78.8053 28.455 78.9135L28.0838 79.4C28.0013 79.5082 27.9028 79.5186 27.7883 79.4312L26.5862 78.5142C26.5162 78.4608 26.457 78.4659 26.4084 78.5295L22.5437 83.5957C22.4612 83.7038 22.3659 83.7166 22.2578 83.6341Z" fill="#101C26"/>
<path d="M34.3774 82.1661L31.4053 88.8424C31.35 88.9666 31.2566 88.9995 31.125 88.9409L30.7523 88.775C30.628 88.7197 30.5936 88.6299 30.6489 88.5056L33.621 81.8293C33.6763 81.7051 33.7661 81.6706 33.8903 81.7259L34.2631 81.8919C34.3946 81.9504 34.4327 82.0418 34.3774 82.1661Z" fill="#101C26"/>
<path d="M41.1209 84.3791L39.5064 91.5066C39.4764 91.6392 39.3911 91.6896 39.2507 91.6578L38.8528 91.5677C38.7201 91.5376 38.6688 91.4563 38.6989 91.3237L40.3133 84.1962C40.3434 84.0636 40.4247 84.0123 40.5574 84.0423L40.9553 84.1325C41.0957 84.1643 41.1509 84.2465 41.1209 84.3791Z" fill="#101C26"/>
<path d="M48.1643 85.2361L47.9694 92.5415C47.9657 92.6774 47.892 92.7435 47.748 92.7396L47.3401 92.7288C47.2042 92.7251 47.138 92.6553 47.1417 92.5194L47.3366 85.214C47.3402 85.078 47.41 85.0119 47.546 85.0155L47.9538 85.0264C48.0978 85.0302 48.1679 85.1001 48.1643 85.2361Z" fill="#101C26"/>
<path d="M55.2399 84.7047L56.472 91.908C56.4949 92.0421 56.4354 92.1213 56.2934 92.1455L55.8913 92.2143C55.7572 92.2373 55.6787 92.1817 55.6558 92.0476L54.4237 84.8442C54.4008 84.7102 54.4564 84.6317 54.5904 84.6088L54.9926 84.54C55.1345 84.5157 55.217 84.5706 55.2399 84.7047Z" fill="#101C26"/>
<path d="M62.0754 82.8047L64.6872 89.6301C64.7358 89.7571 64.6929 89.8463 64.5584 89.8978L64.1774 90.0436C64.0503 90.0922 63.9625 90.053 63.9139 89.926L61.3021 83.1007C61.2535 82.9737 61.2927 82.8858 61.4197 82.8372L61.8007 82.6914C61.9352 82.64 62.0268 82.6777 62.0754 82.8047Z" fill="#101C26"/>
<path d="M68.4117 79.6097L72.3033 85.7954C72.3757 85.9105 72.351 86.0064 72.2291 86.083L71.8837 86.3003C71.7686 86.3727 71.6748 86.3514 71.6024 86.2363L67.7109 80.0506C67.6385 79.9355 67.6598 79.8417 67.7749 79.7693L68.1203 79.552C68.2422 79.4753 68.3393 79.4945 68.4117 79.6097Z" fill="#101C26"/>
<path d="M74.0029 75.2425L79.025 80.5515C79.1184 80.6502 79.1128 80.7491 79.0082 80.8481L78.7118 81.1285C78.613 81.2219 78.5169 81.2193 78.4234 81.1205L73.4014 75.8115C73.3079 75.7127 73.3106 75.6165 73.4094 75.5231L73.7058 75.2427C73.8104 75.1437 73.9094 75.1437 74.0029 75.2425Z" fill="#101C26"/>
<path d="M78.635 69.8682L84.5952 74.0971C84.7061 74.1758 84.7199 74.2738 84.6366 74.3913L84.4005 74.724C84.3218 74.8349 84.227 74.8511 84.1161 74.7724L78.1559 70.5435C78.045 70.4648 78.0289 70.37 78.1075 70.2591L78.3436 69.9263C78.427 69.8089 78.5241 69.7895 78.635 69.8682Z" fill="#101C26"/>
<path d="M82.1329 63.6936L88.8028 66.6802C88.9269 66.7358 88.9596 66.8293 88.9007 66.9607L88.734 67.3331C88.6784 67.4572 88.5885 67.4915 88.4644 67.4359L81.7946 64.4493C81.6704 64.3937 81.6362 64.3038 81.6917 64.1797L81.8585 63.8073C81.9173 63.6759 82.0088 63.638 82.1329 63.6936Z" fill="#101C26"/>
<path d="M84.3623 56.9567L91.4862 58.5867C91.6188 58.617 91.669 58.7024 91.6369 58.8427L91.5459 59.2404C91.5156 59.373 91.4341 59.4241 91.3016 59.3938L84.1776 57.7639C84.0451 57.7335 83.9939 57.6521 84.0243 57.5195L84.1153 57.1218C84.1474 56.9814 84.2297 56.9264 84.3623 56.9567Z" fill="#101C26"/>
<path d="M85.2345 49.9142L92.5394 50.125C92.6754 50.1289 92.7413 50.2029 92.7371 50.3468L92.7253 50.7546C92.7214 50.8906 92.6515 50.9566 92.5155 50.9527L85.2106 50.7419C85.0746 50.7379 85.0086 50.668 85.0126 50.5321L85.0243 50.1242C85.0285 49.9803 85.0985 49.9103 85.2345 49.9142Z" fill="#101C26"/>
<path d="M84.7181 42.8388L91.9242 41.6223C92.0583 41.5997 92.1373 41.6594 92.1613 41.8014L92.2292 42.2037C92.2519 42.3378 92.1961 42.4161 92.062 42.4388L84.856 43.6552C84.7219 43.6779 84.6435 43.6221 84.6209 43.488L84.5529 43.0857C84.529 42.9437 84.584 42.8614 84.7181 42.8388Z" fill="#101C26"/>
</svg>
