<svg width="96" height="21" viewBox="0 0 96 21" fill="none" xmlns="http://www.w3.org/2000/svg">
<rect x="4" y="4" width="13" height="13" fill="#FFBA08"/>
<rect x="4" y="4" width="13" height="13" fill="#614A11"/>
<path d="M28.392 16H27.592C27.4533 16 27.4053 15.9253 27.448 15.776L30.44 5.936C30.4827 5.78667 30.584 5.712 30.744 5.712H31.896C32.056 5.712 32.1573 5.78667 32.2 5.936L35.192 15.776C35.2347 15.9253 35.1867 16 35.048 16H34.232C34.1147 16 34.04 15.9253 34.008 15.776L33.256 13.44H29.384L28.632 15.776C28.5893 15.9253 28.5093 16 28.392 16ZM31.288 6.912L29.64 12.448H33L31.352 6.912H31.288ZM39.4166 16H38.6966C38.5473 16 38.4726 15.9253 38.4726 15.776V6.88C38.4726 6.784 38.4193 6.736 38.3126 6.736H36.1366C35.9766 6.736 35.8966 6.66133 35.8966 6.512V5.936C35.8966 5.78667 35.9766 5.712 36.1366 5.712H41.9766C42.1366 5.712 42.2166 5.78667 42.2166 5.936V6.512C42.2166 6.66133 42.1366 6.736 41.9766 6.736H39.8006C39.694 6.736 39.6406 6.784 39.6406 6.88V15.776C39.6406 15.9253 39.566 16 39.4166 16ZM46.2448 16H45.5248C45.3754 16 45.3008 15.9253 45.3008 15.776V6.88C45.3008 6.784 45.2474 6.736 45.1408 6.736H42.9648C42.8048 6.736 42.7248 6.66133 42.7248 6.512V5.936C42.7248 5.78667 42.8048 5.712 42.9648 5.712H48.8048C48.9648 5.712 49.0448 5.78667 49.0448 5.936V6.512C49.0448 6.66133 48.9648 6.736 48.8048 6.736H46.6288C46.5221 6.736 46.4688 6.784 46.4688 6.88V15.776C46.4688 15.9253 46.3941 16 46.2448 16ZM55.8089 16H50.7849C50.6355 16 50.5609 15.9253 50.5609 15.776V5.936C50.5609 5.78667 50.6355 5.712 50.7849 5.712H55.8089C55.9582 5.712 56.0329 5.78667 56.0329 5.936V6.512C56.0329 6.66133 55.9582 6.736 55.8089 6.736H51.8889C51.7822 6.736 51.7289 6.784 51.7289 6.88V10.112C51.7289 10.208 51.7822 10.256 51.8889 10.256H55.3129C55.4622 10.256 55.5369 10.3307 55.5369 10.48V11.056C55.5369 11.2053 55.4622 11.28 55.3129 11.28H51.8889C51.7822 11.28 51.7289 11.328 51.7289 11.424V14.832C51.7289 14.928 51.7822 14.976 51.8889 14.976H55.8089C55.9582 14.976 56.0329 15.0507 56.0329 15.2V15.776C56.0329 15.9253 55.9582 16 55.8089 16ZM59.1764 16H58.4724C58.323 16 58.2484 15.9253 58.2484 15.776V5.936C58.2484 5.78667 58.323 5.712 58.4724 5.712H59.1284C59.2564 5.712 59.3417 5.75467 59.3844 5.84L63.8004 13.6H63.8644V5.936C63.8644 5.78667 63.939 5.712 64.0884 5.712H64.7924C64.9417 5.712 65.0164 5.78667 65.0164 5.936V15.776C65.0164 15.9253 64.9417 16 64.7924 16H64.2004C64.083 16 63.971 15.9307 63.8644 15.792L59.4644 8.112H59.4004V15.776C59.4004 15.9253 59.3257 16 59.1764 16ZM70.0573 16H69.3373C69.1879 16 69.1133 15.9253 69.1133 15.776V6.88C69.1133 6.784 69.0599 6.736 68.9533 6.736H66.7773C66.6173 6.736 66.5373 6.66133 66.5373 6.512V5.936C66.5373 5.78667 66.6173 5.712 66.7773 5.712H72.6173C72.7773 5.712 72.8573 5.78667 72.8573 5.936V6.512C72.8573 6.66133 72.7773 6.736 72.6173 6.736H70.4413C70.3346 6.736 70.2812 6.784 70.2812 6.88V15.776C70.2812 15.9253 70.2066 16 70.0573 16ZM75.6214 5.936V15.776C75.6214 15.9253 75.5467 16 75.3974 16H74.6774C74.528 16 74.4534 15.9253 74.4534 15.776V5.936C74.4534 5.78667 74.528 5.712 74.6774 5.712H75.3974C75.5467 5.712 75.6214 5.78667 75.6214 5.936ZM80.5688 14.976H82.2008C83.0968 14.976 83.5448 14.512 83.5448 13.584V8.128C83.5448 7.2 83.0968 6.736 82.2008 6.736H80.5688C79.6834 6.736 79.2408 7.2 79.2408 8.128V13.584C79.2408 14.512 79.6834 14.976 80.5688 14.976ZM82.3448 16H80.4408C79.7048 16 79.1234 15.792 78.6968 15.376C78.2808 14.96 78.0728 14.3787 78.0728 13.632V8.08C78.0728 7.33333 78.2808 6.752 78.6968 6.336C79.1234 5.92 79.7048 5.712 80.4408 5.712H82.3448C83.0808 5.712 83.6568 5.92533 84.0728 6.352C84.4994 6.768 84.7128 7.344 84.7128 8.08V13.632C84.7128 14.368 84.4994 14.9493 84.0728 15.376C83.6568 15.792 83.0808 16 82.3448 16ZM88.0045 16H87.3005C87.1512 16 87.0765 15.9253 87.0765 15.776V5.936C87.0765 5.78667 87.1512 5.712 87.3005 5.712H87.9565C88.0845 5.712 88.1698 5.75467 88.2125 5.84L92.6285 13.6H92.6925V5.936C92.6925 5.78667 92.7672 5.712 92.9165 5.712H93.6205C93.7698 5.712 93.8445 5.78667 93.8445 5.936V15.776C93.8445 15.9253 93.7698 16 93.6205 16H93.0285C92.9112 16 92.7992 15.9307 92.6925 15.792L88.2925 8.112H88.2285V15.776C88.2285 15.9253 88.1538 16 88.0045 16Z" fill="#00D8FF" fill-opacity="0.3"/>
<rect x="5" y="5" width="1" height="1" fill="#193745"/>
<rect x="5" y="7" width="1" height="1" fill="#193745"/>
<rect x="5" y="9" width="1" height="1" fill="#193745"/>
<rect x="5" y="11" width="1" height="1" fill="#193745"/>
<rect x="5" y="13" width="1" height="1" fill="#193745"/>
<rect x="5" y="15" width="1" height="1" fill="#193745"/>
<rect x="7" y="5" width="1" height="1" fill="#193745"/>
<rect x="7" y="7" width="1" height="1" fill="#193745"/>
<rect x="7" y="9" width="1" height="1" fill="#193745"/>
<rect x="7" y="11" width="1" height="1" fill="#193745"/>
<rect x="7" y="13" width="1" height="1" fill="#193745"/>
<rect x="7" y="15" width="1" height="1" fill="#193745"/>
<rect x="9" y="5" width="1" height="1" fill="#193745"/>
<rect x="9" y="7" width="1" height="1" fill="#193745"/>
<rect x="9" y="9" width="1" height="1" fill="#193745"/>
<rect x="9" y="11" width="1" height="1" fill="#193745"/>
<rect x="9" y="13" width="1" height="1" fill="#193745"/>
<rect x="9" y="15" width="1" height="1" fill="#193745"/>
<rect x="11" y="5" width="1" height="1" fill="#193745"/>
<rect x="11" y="7" width="1" height="1" fill="#193745"/>
<rect x="11" y="9" width="1" height="1" fill="#193745"/>
<rect x="11" y="11" width="1" height="1" fill="#193745"/>
<rect x="11" y="13" width="1" height="1" fill="#193745"/>
<rect x="11" y="15" width="1" height="1" fill="#193745"/>
<rect x="13" y="5" width="1" height="1" fill="#193745"/>
<rect x="13" y="7" width="1" height="1" fill="#193745"/>
<rect x="13" y="9" width="1" height="1" fill="#193745"/>
<rect x="13" y="11" width="1" height="1" fill="#193745"/>
<rect x="13" y="13" width="1" height="1" fill="#193745"/>
<rect x="13" y="15" width="1" height="1" fill="#193745"/>
<rect x="15" y="5" width="1" height="1" fill="#193745"/>
<rect x="15" y="7" width="1" height="1" fill="#193745"/>
<rect x="15" y="9" width="1" height="1" fill="#193745"/>
<rect x="15" y="11" width="1" height="1" fill="#193745"/>
<rect x="15" y="13" width="1" height="1" fill="#193745"/>
<rect x="15" y="15" width="1" height="1" fill="#193745"/>
</svg>
