<svg width="78" height="21" viewBox="0 0 78 21" fill="none" xmlns="http://www.w3.org/2000/svg">
<rect x="4" y="4" width="13" height="13" fill="#FFBA08"/>
<rect x="4" y="4" width="13" height="13" fill="#666666"/>
<path d="M26.192 16H25.488C25.3387 16 25.264 15.9253 25.264 15.776V5.936C25.264 5.78667 25.3387 5.712 25.488 5.712H26.144C26.272 5.712 26.3573 5.75467 26.4 5.84L30.816 13.6H30.88V5.936C30.88 5.78667 30.9547 5.712 31.104 5.712H31.808C31.9573 5.712 32.032 5.78667 32.032 5.936V15.776C32.032 15.9253 31.9573 16 31.808 16H31.216C31.0987 16 30.9867 15.9307 30.88 15.792L26.48 8.112H26.416V15.776C26.416 15.9253 26.3413 16 26.192 16ZM36.8969 14.976H38.5289C39.4249 14.976 39.8729 14.512 39.8729 13.584V8.128C39.8729 7.2 39.4249 6.736 38.5289 6.736H36.8969C36.0115 6.736 35.5689 7.2 35.5689 8.128V13.584C35.5689 14.512 36.0115 14.976 36.8969 14.976ZM38.6729 16H36.7689C36.0329 16 35.4515 15.792 35.0249 15.376C34.6089 14.96 34.4009 14.3787 34.4009 13.632V8.08C34.4009 7.33333 34.6089 6.752 35.0249 6.336C35.4515 5.92 36.0329 5.712 36.7689 5.712H38.6729C39.4089 5.712 39.9849 5.92533 40.4009 6.352C40.8275 6.768 41.0409 7.344 41.0409 8.08V13.632C41.0409 14.368 40.8275 14.9493 40.4009 15.376C39.9849 15.792 39.4089 16 38.6729 16ZM44.3486 16H43.6286C43.4793 16 43.4046 15.9253 43.4046 15.776V5.936C43.4046 5.78667 43.4793 5.712 43.6286 5.712H47.3086C48.0446 5.712 48.626 5.92533 49.0526 6.352C49.4793 6.768 49.6926 7.344 49.6926 8.08V9.536C49.6926 10.1333 49.5486 10.6293 49.2606 11.024C48.9726 11.408 48.5726 11.664 48.0606 11.792V11.856L49.9166 15.744C50.0126 15.9147 49.9593 16 49.7566 16H49.0366C48.8553 16 48.722 15.9253 48.6366 15.776L46.8446 11.904H44.7326C44.626 11.904 44.5726 11.952 44.5726 12.048V15.776C44.5726 15.9253 44.498 16 44.3486 16ZM44.7326 10.928H47.1486C48.066 10.928 48.5246 10.4693 48.5246 9.552V8.128C48.5246 7.2 48.066 6.736 47.1486 6.736H44.7326C44.626 6.736 44.5726 6.784 44.5726 6.88V10.784C44.5726 10.88 44.626 10.928 44.7326 10.928ZM59.2304 5.712H60.5264C60.6757 5.712 60.7504 5.78667 60.7504 5.936V15.776C60.7504 15.9253 60.6757 16 60.5264 16H59.8224C59.673 16 59.5984 15.9253 59.5984 15.776V7.28H59.5344L57.0544 13.552C56.9904 13.6907 56.8944 13.76 56.7664 13.76H55.9984C55.8597 13.76 55.769 13.6907 55.7264 13.552L53.1984 7.264H53.1344V15.776C53.1344 15.9253 53.065 16 52.9264 16H52.2224C52.073 16 51.9984 15.9253 51.9984 15.776V5.936C51.9984 5.78667 52.073 5.712 52.2224 5.712H53.5184C53.6144 5.712 53.6784 5.75467 53.7104 5.84L56.3344 12.464H56.4144L59.0384 5.84C59.0597 5.75467 59.1237 5.712 59.2304 5.712ZM63.4076 16H62.6076C62.469 16 62.421 15.9253 62.4636 15.776L65.4556 5.936C65.4983 5.78667 65.5996 5.712 65.7596 5.712H66.9116C67.0716 5.712 67.173 5.78667 67.2156 5.936L70.2076 15.776C70.2503 15.9253 70.2023 16 70.0636 16H69.2476C69.1303 16 69.0556 15.9253 69.0236 15.776L68.2716 13.44H64.3996L63.6476 15.776C63.605 15.9253 63.525 16 63.4076 16ZM66.3036 6.912L64.6556 12.448H68.0156L66.3676 6.912H66.3036ZM77.2803 16H72.1443C71.9949 16 71.9203 15.9253 71.9203 15.776V5.936C71.9203 5.78667 71.9949 5.712 72.1443 5.712H72.8643C73.0136 5.712 73.0883 5.78667 73.0883 5.936V14.8C73.0883 14.896 73.1416 14.944 73.2483 14.944H77.2803C77.4296 14.944 77.5043 15.024 77.5043 15.184V15.776C77.5043 15.9253 77.4296 16 77.2803 16Z" fill="#00D8FF" fill-opacity="0.3"/>
<rect x="5" y="5" width="1" height="1" fill="#193745"/>
<rect x="5" y="7" width="1" height="1" fill="#193745"/>
<rect x="5" y="9" width="1" height="1" fill="#193745"/>
<rect x="5" y="11" width="1" height="1" fill="#193745"/>
<rect x="5" y="13" width="1" height="1" fill="#193745"/>
<rect x="5" y="15" width="1" height="1" fill="#193745"/>
<rect x="7" y="5" width="1" height="1" fill="#193745"/>
<rect x="7" y="7" width="1" height="1" fill="#193745"/>
<rect x="7" y="9" width="1" height="1" fill="#193745"/>
<rect x="7" y="11" width="1" height="1" fill="#193745"/>
<rect x="7" y="13" width="1" height="1" fill="#193745"/>
<rect x="7" y="15" width="1" height="1" fill="#193745"/>
<rect x="9" y="5" width="1" height="1" fill="#193745"/>
<rect x="9" y="7" width="1" height="1" fill="#193745"/>
<rect x="9" y="9" width="1" height="1" fill="#193745"/>
<rect x="9" y="11" width="1" height="1" fill="#193745"/>
<rect x="9" y="13" width="1" height="1" fill="#193745"/>
<rect x="9" y="15" width="1" height="1" fill="#193745"/>
<rect x="11" y="5" width="1" height="1" fill="#193745"/>
<rect x="11" y="7" width="1" height="1" fill="#193745"/>
<rect x="11" y="9" width="1" height="1" fill="#193745"/>
<rect x="11" y="11" width="1" height="1" fill="#193745"/>
<rect x="11" y="13" width="1" height="1" fill="#193745"/>
<rect x="11" y="15" width="1" height="1" fill="#193745"/>
<rect x="13" y="5" width="1" height="1" fill="#193745"/>
<rect x="13" y="7" width="1" height="1" fill="#193745"/>
<rect x="13" y="9" width="1" height="1" fill="#193745"/>
<rect x="13" y="11" width="1" height="1" fill="#193745"/>
<rect x="13" y="13" width="1" height="1" fill="#193745"/>
<rect x="13" y="15" width="1" height="1" fill="#193745"/>
<rect x="15" y="5" width="1" height="1" fill="#193745"/>
<rect x="15" y="7" width="1" height="1" fill="#193745"/>
<rect x="15" y="9" width="1" height="1" fill="#193745"/>
<rect x="15" y="11" width="1" height="1" fill="#193745"/>
<rect x="15" y="13" width="1" height="1" fill="#193745"/>
<rect x="15" y="15" width="1" height="1" fill="#193745"/>
</svg>
