<svg width="78" height="23" viewBox="0 0 78 23" fill="none" xmlns="http://www.w3.org/2000/svg">
<g filter="url(#filter0_d_266_43585)">
<path d="M5 4H18V17H5V4Z" fill="#00D8FF"/>
</g>
<path d="M29.159 13.376V13.056C29.159 12.832 29.271 12.72 29.495 12.72H30.855C31.079 12.72 31.191 12.832 31.191 13.056V13.184C31.191 13.5893 31.271 13.8667 31.431 14.016C31.591 14.1653 31.8843 14.24 32.311 14.24H33.063C33.479 14.24 33.767 14.16 33.927 14C34.0977 13.84 34.183 13.5413 34.183 13.104V12.912C34.183 12.6027 34.055 12.368 33.799 12.208C33.5537 12.0373 33.2443 11.936 32.871 11.904C32.4977 11.872 32.0923 11.8133 31.655 11.728C31.2283 11.632 30.8283 11.5147 30.455 11.376C30.0817 11.2267 29.767 10.944 29.511 10.528C29.2657 10.1013 29.143 9.55733 29.143 8.896V8.336C29.143 7.504 29.3777 6.85867 29.847 6.4C30.3163 5.94133 30.967 5.712 31.799 5.712H33.399C34.2417 5.712 34.8977 5.94133 35.367 6.4C35.8363 6.85867 36.071 7.504 36.071 8.336V8.64C36.071 8.864 35.959 8.976 35.735 8.976H34.375C34.151 8.976 34.039 8.864 34.039 8.64V8.544C34.039 8.128 33.959 7.84533 33.799 7.696C33.639 7.54667 33.3457 7.472 32.919 7.472H32.295C31.8577 7.472 31.559 7.55733 31.399 7.728C31.2497 7.888 31.175 8.208 31.175 8.688V8.992C31.175 9.49333 31.6123 9.78133 32.487 9.856C33.3937 9.93067 34.199 10.112 34.903 10.4C35.2763 10.56 35.5857 10.848 35.831 11.264C36.087 11.6693 36.215 12.192 36.215 12.832V13.376C36.215 14.208 35.9803 14.8533 35.511 15.312C35.0417 15.7707 34.391 16 33.559 16H31.815C30.983 16 30.3323 15.7707 29.863 15.312C29.3937 14.8533 29.159 14.208 29.159 13.376ZM43.608 16H38.376C38.152 16 38.04 15.888 38.04 15.664V6.048C38.04 5.824 38.152 5.712 38.376 5.712H43.608C43.8213 5.712 43.928 5.824 43.928 6.048V7.136C43.928 7.36 43.8213 7.472 43.608 7.472H40.264C40.136 7.472 40.072 7.53067 40.072 7.648V9.728C40.072 9.84533 40.136 9.904 40.264 9.904H43C43.224 9.904 43.336 10.016 43.336 10.24V11.328C43.336 11.552 43.224 11.664 43 11.664H40.264C40.136 11.664 40.072 11.7227 40.072 11.84V14.064C40.072 14.1813 40.136 14.24 40.264 14.24H43.608C43.8213 14.24 43.928 14.352 43.928 14.576V15.664C43.928 15.888 43.8213 16 43.608 16ZM49.9203 16H48.1763C47.3336 16 46.6829 15.776 46.2243 15.328C45.7656 14.88 45.5363 14.2347 45.5363 13.392V8.32C45.5363 7.47733 45.7656 6.832 46.2243 6.384C46.6829 5.936 47.3336 5.712 48.1763 5.712H49.9203C50.7523 5.712 51.3976 5.94133 51.8563 6.4C52.3256 6.848 52.5603 7.488 52.5603 8.32V9.072C52.5603 9.30667 52.4429 9.424 52.2083 9.424H50.8643C50.6403 9.424 50.5283 9.30667 50.5283 9.072V8.416C50.5283 8.07467 50.4536 7.83467 50.3043 7.696C50.1656 7.54667 49.9256 7.472 49.5843 7.472H48.4963C48.1656 7.472 47.9256 7.54667 47.7763 7.696C47.6376 7.83467 47.5683 8.07467 47.5683 8.416V13.296C47.5683 13.6373 47.6376 13.8827 47.7763 14.032C47.9256 14.1707 48.1656 14.24 48.4963 14.24H49.5843C49.9256 14.24 50.1656 14.1707 50.3043 14.032C50.4536 13.8827 50.5283 13.6373 50.5283 13.296V12.64C50.5283 12.4053 50.6403 12.288 50.8643 12.288H52.2083C52.4429 12.288 52.5603 12.4053 52.5603 12.64V13.392C52.5603 14.224 52.3256 14.8693 51.8563 15.328C51.3976 15.776 50.7523 16 49.9203 16ZM59.5696 5.712H60.9136C61.1483 5.712 61.2656 5.81867 61.2656 6.032V13.392C61.2656 14.224 61.031 14.8693 60.5616 15.328C60.103 15.776 59.4576 16 58.6256 16H56.8656C56.023 16 55.3723 15.776 54.9136 15.328C54.455 14.88 54.2256 14.2347 54.2256 13.392V6.048C54.2256 5.824 54.3376 5.712 54.5616 5.712H55.9216C56.1456 5.712 56.2576 5.824 56.2576 6.048V13.296C56.2576 13.6373 56.327 13.8827 56.4656 14.032C56.615 14.1707 56.855 14.24 57.1856 14.24H58.2896C58.631 14.24 58.871 14.1707 59.0096 14.032C59.159 13.8827 59.2336 13.6373 59.2336 13.296V6.048C59.2336 5.824 59.3456 5.712 59.5696 5.712ZM64.9548 16H63.5948C63.3708 16 63.2588 15.888 63.2588 15.664V6.048C63.2588 5.824 63.3708 5.712 63.5948 5.712H67.4028C68.2348 5.712 68.8854 5.94133 69.3548 6.4C69.8241 6.85867 70.0588 7.504 70.0588 8.336V9.584C70.0588 10.7893 69.5841 11.5893 68.6348 11.984V12.048L70.3468 15.616C70.4428 15.872 70.3521 16 70.0748 16H68.7788C68.5868 16 68.4481 15.9787 68.3628 15.936C68.2774 15.8933 68.2081 15.8027 68.1548 15.664L66.5548 12.208H65.4828C65.3548 12.208 65.2908 12.2667 65.2908 12.384V15.664C65.2908 15.888 65.1788 16 64.9548 16ZM65.4668 10.576H67.0348C67.3761 10.576 67.6268 10.5067 67.7868 10.368C67.9468 10.2187 68.0268 9.984 68.0268 9.664V8.416C68.0268 8.08533 67.9468 7.84533 67.7868 7.696C67.6268 7.54667 67.3761 7.472 67.0348 7.472H65.4668C65.3494 7.472 65.2908 7.53067 65.2908 7.648V10.4C65.2908 10.5173 65.3494 10.576 65.4668 10.576ZM77.5768 16H72.3448C72.1208 16 72.0088 15.888 72.0088 15.664V6.048C72.0088 5.824 72.1208 5.712 72.3448 5.712H77.5768C77.7901 5.712 77.8968 5.824 77.8968 6.048V7.136C77.8968 7.36 77.7901 7.472 77.5768 7.472H74.2328C74.1048 7.472 74.0408 7.53067 74.0408 7.648V9.728C74.0408 9.84533 74.1048 9.904 74.2328 9.904H76.9688C77.1928 9.904 77.3048 10.016 77.3048 10.24V11.328C77.3048 11.552 77.1928 11.664 76.9688 11.664H74.2328C74.1048 11.664 74.0408 11.7227 74.0408 11.84V14.064C74.0408 14.1813 74.1048 14.24 74.2328 14.24H77.5768C77.7901 14.24 77.8968 14.352 77.8968 14.576V15.664C77.8968 15.888 77.7901 16 77.5768 16Z" fill="#00D8FF"/>
<defs>
<filter id="filter0_d_266_43585" x="0" y="0" width="23" height="23" filterUnits="userSpaceOnUse" color-interpolation-filters="sRGB">
<feFlood flood-opacity="0" result="BackgroundImageFix"/>
<feColorMatrix in="SourceAlpha" type="matrix" values="0 0 0 0 0 0 0 0 0 0 0 0 0 0 0 0 0 0 127 0" result="hardAlpha"/>
<feMorphology radius="1" operator="dilate" in="SourceAlpha" result="effect1_dropShadow_266_43585"/>
<feOffset dy="1"/>
<feGaussianBlur stdDeviation="2"/>
<feComposite in2="hardAlpha" operator="out"/>
<feColorMatrix type="matrix" values="0 0 0 0 0 0 0 0 0 0.847222 0 0 0 0 1 0 0 0 0.3 0"/>
<feBlend mode="normal" in2="BackgroundImageFix" result="effect1_dropShadow_266_43585"/>
<feBlend mode="normal" in="SourceGraphic" in2="effect1_dropShadow_266_43585" result="shape"/>
</filter>
</defs>
</svg>
