<svg width="175" height="171" viewBox="0 0 175 171" fill="none" xmlns="http://www.w3.org/2000/svg">
<path d="M105 143.338L115 133.279L105 171V143.338Z" fill="#00D8FF"/>
<path d="M147.5 22.6324V35.2059L175 0L147.5 22.6324Z" fill="#00D8FF"/>
<path d="M105 103.103V76.6985L125 57.8382V41.4927L142.5 23.8897V52.8088L115 77.9559V93.0441L105 103.103Z" fill="#00D8FF"/>
<path d="M152.5 57.8382L147.5 52.8088V40.2353L160 50.2941V77.9559L87.5 150.882V138.309L152.5 72.9265V57.8382Z" fill="#00D8FF"/>
<path d="M87.5 110.647V120.706L100 108.132V98.0735L87.5 110.647Z" fill="#00D8FF"/>
<path d="M87.5 93.0441V103.103L100 90.5294V80.4706L87.5 93.0441Z" fill="#00D8FF"/>
<path d="M120 80.4706V88.3811L142.5 60.3529L120 80.4706Z" fill="#00D8FF"/>
<path d="M70 143.338L60 133.279L70 171L70 143.338Z" fill="#00D8FF"/>
<path d="M27.5 22.6324V35.2059L0 0L27.5 22.6324Z" fill="#00D8FF"/>
<path d="M70 103.103V76.6985L50 57.8382V41.4927L32.5 23.8897V52.8088L60 77.9559V93.0441L70 103.103Z" fill="#00D8FF"/>
<path d="M22.5 57.8382L27.5 52.8088V40.2353L15 50.2941V77.9559L87.5 150.882V138.309L22.5 72.9265V57.8382Z" fill="#00D8FF"/>
<path d="M87.5 110.647V120.706L75 108.132V98.0735L87.5 110.647Z" fill="#00D8FF"/>
<path d="M87.5 93.0441V103.103L75 90.5294V80.4706L87.5 93.0441Z" fill="#00D8FF"/>
<path d="M55 80.4706V88.3811L32.5 60.3529L55 80.4706Z" fill="#00D8FF"/>
</svg>
